<svg xmlns="http://www.w3.org/2000/svg" viewBox="0,0,255.98959,255.98959"
     width="32px" height="32px" fill-rule="nonzero">
    <g fill="#9a0000" fill-rule="nonzero" stroke="none" stroke-width="1" stroke-linecap="butt" stroke-linejoin="miter"
       stroke-miterlimit="10" stroke-dasharray="" stroke-dashoffset="0" font-family="none"
       font-size="none" style="mix-blend-mode: normal">
        <g transform="scale(5.12,5.12)">
            <path d="M42.12891,22.25781c0.00781,-0.19141 0.01563,-0.37891 0.01563,-0.5625c0,-7.25 -5.90234,-13.14844 -13.15234,-13.14844c-5.00781,0 -9.58203,2.89453 -11.77734,7.33203c-1.13672,-0.75 -2.46484,-1.15625 -3.85937,-1.15625c-3.70312,0 -6.74609,2.88672 -6.99219,6.53125c-3.78125,1.375 -6.36328,5.00391 -6.36328,9.07813c0,5.32813 4.33984,9.66797 9.67188,9.66797h31.42578c4.91016,0 8.90234,-3.99219 8.90234,-8.90234c0,-4.55859 -3.44531,-8.32812 -7.87109,-8.83984zM27.00391,34.6875c0,0.19922 -0.11328,0.3125 -0.3125,0.3125h-2.37891c-0.19922,0 -0.30859,-0.11328 -0.30859,-0.3125v-2.41016c0,-0.19922 0.10938,-0.28125 0.30859,-0.28125h2.37891c0.19922,0 0.3125,0.08203 0.3125,0.28125zM27.01563,29.6875c0,0.19922 -0.08203,0.3125 -0.28125,0.3125h-2.42578c-0.19922,0 -0.3125,-0.11328 -0.3125,-0.3125v-11.375c0,-0.19922 0.11328,-0.3125 0.3125,-0.3125h2.42578c0.19922,0 0.28125,0.11328 0.28125,0.3125z"></path>
        </g>
    </g>
</svg>