<svg width="30" height="30" viewBox="0 0 30 30" fill="none" xmlns="http://www.w3.org/2000/svg">
    <path d="M24.2857 30H11.4286V4.88373H24.2857C25.075 4.88373 25.7143 5.50815 25.7143 6.27908V28.6047C25.7143 29.3756 25.075 30 24.2857 30Z"
          fill="#00B410"/>
    <path d="M6.03358 2.24931C5.93287 2.19977 5.82358 2.17535 5.71429 2.17535V27.2916C5.82358 27.2916 5.93287 27.316 6.03358 27.3656L11.4286 30V4.88373L6.03358 2.24931Z"
          fill="#006C09"/>
    <path d="M5.395 2.24927L0.79 4.49788C0.305714 4.73439 0 5.21788 0 5.74602V28.8711C0 29.3895 0.558572 29.7272 1.03357 29.4948L5.395 27.3648C5.49572 27.316 5.605 27.2909 5.71429 27.2909V2.17462C5.605 2.17532 5.49572 2.19974 5.395 2.24927Z"
          fill="#88F888"/>
    <path opacity="0.05"
          d="M25.7143 6.27908C25.7143 5.50815 25.075 4.88373 24.2857 4.88373H12.8572C12.3986 5.95815 12.1429 7.13582 12.1429 8.3721C12.1429 10.8293 13.1479 13.0549 14.7729 14.6888C14.7822 14.6979 20.6993 20.483 20.6993 20.483C21.1022 20.8765 21.7557 20.8765 22.1586 20.483C22.1586 20.483 24.0643 18.6202 25.715 17.0065L25.7143 6.27908Z"
          fill="black"/>
    <path opacity="0.07"
          d="M25.7143 6.27908C25.7143 5.50815 25.0751 4.88373 24.2858 4.88373H13.2508C12.7715 5.95257 12.5001 7.13024 12.5001 8.3721C12.5001 10.7351 13.4743 12.8672 15.0286 14.4454C15.0372 14.4544 20.7272 20.0163 20.7272 20.0163C21.1143 20.3944 21.7429 20.3944 22.1301 20.0163C22.1301 20.0163 24.0958 18.0949 25.7143 16.5126V6.27908Z"
          fill="black"/>
    <path d="M27.5722 14.2026C29.0729 12.6949 30 10.6402 30 8.37209C30 3.7486 26.1622 0 21.4286 0C16.695 0 12.8572 3.7486 12.8572 8.37209C12.8572 10.6402 13.7843 12.6949 15.285 14.2026C15.2936 14.2109 20.7557 19.5509 20.7557 19.5509C21.1279 19.9144 21.7307 19.9144 22.1029 19.5509C22.1029 19.5509 27.5643 14.2109 27.5722 14.2026Z"
          fill="url(#paint0_linear_205_2)"/>
    <path d="M21.4286 12.2791C23.6377 12.2791 25.4286 10.5299 25.4286 8.37209C25.4286 6.21433 23.6377 4.46512 21.4286 4.46512C19.2195 4.46512 17.4286 6.21433 17.4286 8.37209C17.4286 10.5299 19.2195 12.2791 21.4286 12.2791Z"
          fill="url(#paint1_radial_205_2)"/>
    <path d="M21.4286 11.7209C23.3221 11.7209 24.8571 10.2216 24.8571 8.37209C24.8571 6.52258 23.3221 5.02325 21.4286 5.02325C19.535 5.02325 18 6.52258 18 8.37209C18 10.2216 19.535 11.7209 21.4286 11.7209Z"
          fill="#F9F9F9"/>
    <defs>
        <linearGradient id="paint0_linear_205_2" x1="15.3686" y1="2.45163" x2="27.2035" y2="14.5683"
                        gradientUnits="userSpaceOnUse">
            <stop stop-color="#FFFB06"/>
            <stop offset="1" stop-color="#F68F00"/>
        </linearGradient>
        <radialGradient id="paint1_radial_205_2" cx="0" cy="0" r="1" gradientUnits="userSpaceOnUse"
                        gradientTransform="translate(21.4278 8.3717) scale(3.99986 3.90684)">
            <stop offset="0.177"/>
            <stop offset="1" stop-color="white"/>
        </radialGradient>
    </defs>
</svg>
