<svg xmlns="http://www.w3.org/2000/svg" viewBox="0,0,255.98959,255.98959"
     width="50px" height="50px" fill-rule="nonzero">
    <g fill="#00ad24" fill-rule="nonzero" stroke="none" stroke-width="1" stroke-linecap="butt" stroke-linejoin="miter"
       stroke-miterlimit="10" stroke-dasharray="" stroke-dashoffset="0" font-family="none" font-weight="none"
       font-size="none" text-anchor="none" style="mix-blend-mode: normal">
        <g transform="scale(5.12,5.12)">
            <path d="M13,42c-0.52734,0 -1.03906,-0.21094 -1.41406,-0.58594l-11,-11c-0.78125,-0.78125 -0.78125,-2.04687 0,-2.82812c0.78125,-0.78125 2.04688,-0.78125 2.82813,0l9.44531,9.44531l22.60156,-27.30469c0.70313,-0.85547 1.96484,-0.97266 2.8125,-0.26562c0.85156,0.70313 0.97266,1.96484 0.26563,2.8125l-24,29c-0.35547,0.4375 -0.88281,0.69922 -1.44531,0.72266c-0.03125,0.00391 -0.0625,0.00391 -0.09375,0.00391zM24.09375,41.99609c0.5625,-0.02344 1.08594,-0.28516 1.44531,-0.72266l24,-29c0.70703,-0.84766 0.58594,-2.10937 -0.26562,-2.8125c-0.84766,-0.70703 -2.10937,-0.58594 -2.8125,0.26563l-22.60156,27.30469l-0.44531,-0.44531c-0.78125,-0.78125 -2.04687,-0.78125 -2.82812,0c-0.78125,0.78125 -0.78125,2.04688 0,2.82813l2,2c0.375,0.375 0.88672,0.58594 1.41406,0.58594c0.03125,0 0.0625,0 0.09375,-0.00391z"></path>
        </g>
    </g>
</svg>