<svg xmlns="http://www.w3.org/2000/svg" viewBox="0,0,255.98959,255.98959" width="30px" height="30px">
    <g fill-rule="nonzero" stroke="none" stroke-width="1" stroke-linecap="butt" stroke-linejoin="miter"
       stroke-miterlimit="10" stroke-dasharray="" stroke-dashoffset="0" font-family="none"
       font-size="none" style="mix-blend-mode: normal">
        <g transform="scale(0.5,0.5)">
            <path d="M260,20c-128.82279,0 -234.10507,101.7594 -239.73828,229.23828c-0.00968,0.11119 -0.01749,0.22254 -0.02344,0.33399c-0.14677,3.42844 -0.23828,6.9027 -0.23828,10.42773c0,132.42945 107.57055,240 240,240c132.42945,0 240,-107.57055 240,-240c0,-3.46094 -0.09349,-6.86645 -0.23438,-10.22852c-0.00066,-0.06511 -0.00196,-0.13022 -0.0039,-0.19531c0,-0.0013 0,-0.0026 0,-0.0039c-5.46269,-127.63601 -110.82571,-229.57227 -239.76172,-229.57227zM250,41.44531v88.67188c-22.19618,0.48076 -43.61137,2.55409 -63.86328,6.03711c3.61628,-12.61254 7.75143,-24.28338 12.32422,-34.80078c8.67741,-19.95807 18.92922,-35.74238 29.58789,-46.11133c7.32921,-7.13 14.62808,-11.66161 21.95117,-13.79688zM270,41.44531c7.32309,2.13526 14.62196,6.66688 21.95117,13.79688c10.65867,10.36895 20.91048,26.15326 29.58789,46.11133c4.57279,10.5174 8.70794,22.18824 12.32422,34.80078c-20.25191,-3.48302 -41.6671,-5.55635 -63.86328,-6.03711zM209.30664,45.88477c-11.21652,12.38282 -20.92453,28.48929 -29.1875,47.49414c-6.17353,14.19912 -11.52996,30.04789 -15.94922,47.20507c-26.6177,6.19228 -50.76596,14.91618 -71.42969,25.69727c-17.04397,8.89251 -31.89067,19.33525 -43.66016,31.04687c22.24184,-75.09123 83.41908,-133.36312 160.22656,-151.44335zM310.69336,45.88477c76.80748,18.08023 137.98473,76.35212 160.22656,151.44335c-11.76948,-11.71162 -26.61619,-22.15436 -43.66015,-31.04687c-20.66373,-10.78109 -44.81199,-19.50499 -71.42969,-25.69727c-4.41926,-17.15718 -9.77569,-33.00595 -15.94922,-47.20507c-8.26297,-19.00485 -17.97098,-35.11132 -29.1875,-47.49414zM250,150.12305v89.87695h-79.60742c1.13762,-29.55065 4.75515,-57.43879 10.3164,-82.45508c21.64218,-4.26774 44.95227,-6.86121 69.29102,-7.42187zM270,150.12305c24.33875,0.56066 47.64884,3.15413 69.29102,7.42187c5.56125,25.01629 9.17878,52.90443 10.3164,82.45508h-79.60742zM159.18555,162.47656c-4.77962,24.02491 -7.81474,50.1148 -8.81446,77.52344h-106.55664c7.91924,-20.71812 27.98244,-40.23326 58.17578,-55.98633c16.49543,-8.60632 35.81237,-15.91886 57.19532,-21.53711zM360.81445,162.47656c21.38295,5.61825 40.69989,12.93079 57.19532,21.53711c30.19333,15.75307 50.25653,35.26821 58.17578,55.98633h-106.55664c-0.99972,-27.40864 -4.03484,-53.49853 -8.81446,-77.52344zM40,260h110c0,34.73784 3.25582,67.71747 9.18555,97.52344c-21.38295,-5.61825 -40.69989,-12.93079 -57.19532,-21.53711c-39.77236,-20.75082 -61.99023,-48.02845 -61.99023,-75.98633zM170,260h80v109.87695c-24.33875,-0.56066 -47.64884,-3.15413 -69.29102,-7.42187c-6.80142,-30.59496 -10.70898,-65.47867 -10.70898,-102.45508zM270,260h80c0,36.97641 -3.90756,71.86012 -10.70898,102.45508c-21.64218,4.26774 -44.95227,6.86121 -69.29102,7.42187zM370,260h110c0,27.95788 -22.21787,55.23551 -61.99023,75.98633c-16.49543,8.60632 -35.81237,15.91886 -57.19532,21.53711c5.92973,-29.80597 9.18555,-62.7856 9.18555,-97.52344zM49.0332,322.625c11.7769,11.73059 26.6404,22.18941 43.70703,31.09375c20.66373,10.78109 44.81199,19.50499 71.42969,25.69727c4.41926,17.15718 9.77569,33.00595 15.94922,47.20507c8.25884,18.99537 17.96051,35.09621 29.16992,47.47657c-76.82507,-18.08384 -138.02931,-76.35042 -160.25586,-151.47266zM470.9668,322.625c-22.22655,75.12224 -83.43079,133.38882 -160.25586,151.47266c11.20941,-12.38036 20.91108,-28.4812 29.16992,-47.47657c6.17353,-14.19912 11.52996,-30.04789 15.94922,-47.20507c26.6177,-6.19228 50.76596,-14.91618 71.42969,-25.69727c17.06663,-8.90434 31.93013,-19.36316 43.70703,-31.09375zM186.13672,383.8457c20.25191,3.48302 41.6671,5.55635 63.86328,6.03711v88.67188c-7.32309,-2.13526 -14.62196,-6.66688 -21.95117,-13.79688c-10.65867,-10.36895 -20.91048,-26.15326 -29.58789,-46.11133c-4.57279,-10.5174 -8.70794,-22.18824 -12.32422,-34.80078zM333.86328,383.8457c-3.61628,12.61254 -7.75143,24.28338 -12.32422,34.80078c-8.67741,19.95807 -18.92922,35.74238 -29.58789,46.11133c-7.32921,7.13 -14.62808,11.66162 -21.95117,13.79688v-88.67188c22.19618,-0.48076 43.61137,-2.55409 63.86328,-6.03711z">

            </path>
        </g>
    </g>
</svg>