<svg xmlns="http://www.w3.org/2000/svg" xmlns:xlink="http://www.w3.org/1999/xlink" viewBox="0,0,256,256" width="50px" height="50px" fill-rule="nonzero"><g fill="#3b82f6" fill-rule="nonzero" stroke="none" stroke-width="1" stroke-linecap="butt" stroke-linejoin="miter" stroke-miterlimit="10" stroke-dasharray="" stroke-dashoffset="0" font-family="none" font-weight="none" font-size="none" text-anchor="none" style="mix-blend-mode: normal"><g transform="scale(10.66667,10.66667)"><path d="M12,2.0625l-0.46875,0.25l-7.90625,4.21875h-0.03125c-0.99219,0.56641 -1.59375,1.57422 -1.59375,2.65625v7.8125c0,1.64453 1.35547,3 3,3h1v-2h-1c-0.55469,0 -1,-0.44531 -1,-1v-7.8125c0,-0.32031 0.1875,-0.67578 0.59375,-0.90625l7.40625,-3.9375l7.4375,4.03125l0.03125,0.03125h0.03125c0.30859,0.13281 0.5,0.44141 0.5,0.90625v7.6875c0,0.55469 -0.44531,1 -1,1h-1v2h1c1.64453,0 3,-1.35547 3,-3v-7.6875c0,-1.10547 -0.61719,-2.16797 -1.65625,-2.65625l0.03125,-0.03125l-0.09375,-0.03125l-7.8125,-4.28125zM9,10c-1.10156,0 -2,0.89844 -2,2v10l5,-2l5,2v-10c0,-1.10156 -0.89844,-2 -2,-2z"></path></g></g></svg>