<svg xmlns="http://www.w3.org/2000/svg" xmlns:xlink="http://www.w3.org/1999/xlink" viewBox="0,0,256,256" width="50px" height="50px" fill-rule="nonzero"><g fill="#22c55e" fill-rule="nonzero" stroke="1" stroke-width="7px" stroke-linecap="butt" stroke-linejoin="miter" stroke-miterlimit="10" stroke-dasharray="" stroke-dashoffset="0" font-family="none" style="mix-blend-mode: normal"><g transform="scale(0.53333,0.53333)"><path d="M440,63h-400c-22.1,0 -40,17.9 -40,40v108c0,4.4 3.6,8 8,8h418c4.4,0 8,-3.6 8,-8c0,-4.4 -3.6,-8 -8,-8h-410v-52h410c4.4,0 8,-3.6 8,-8c0,-4.4 -3.6,-8 -8,-8h-410v-32c0,-13.2 10.8,-24 24,-24h400c13.2,0 24,10.8 24,24v274c0,13.2 -10.8,24 -24,24h-400c-13.2,0 -24,-10.8 -24,-24v-120c0,-4.4 -3.6,-8 -8,-8c-4.4,0 -8,3.6 -8,8v120c0,22.1 17.9,40 40,40h400c22.1,0 40,-17.9 40,-40v-274c0,-22.1 -17.9,-40 -40,-40zM73,294h67c4.4,0 8,-3.6 8,-8c0,-4.4 -3.6,-8 -8,-8h-67c-4.4,0 -8,3.6 -8,8c0,4.4 3.6,8 8,8zM73,344h67c4.4,0 8,-3.6 8,-8c0,-4.4 -3.6,-8 -8,-8h-67c-4.4,0 -8,3.6 -8,8c0,4.4 3.6,8 8,8z"></path></g></g></svg>