<svg xmlns="http://www.w3.org/2000/svg" xmlns:xlink="http://www.w3.org/1999/xlink" viewBox="0,0,256,256" width="48px" height="48px" fill-rule="nonzero"><g transform="translate(26.66667,26.66667) scale(0.79167,0.79167)"><g fill="#000000" fill-rule="nonzero" stroke="none" stroke-width="1" stroke-linecap="butt" stroke-linejoin="miter" stroke-miterlimit="10" stroke-dasharray="" stroke-dashoffset="0" font-family="none" font-weight="none" font-size="none" text-anchor="none" style="mix-blend-mode: normal"><g transform="scale(5.33333,5.33333)"><path d="M11.00586,0c-0.26624,-0.00159 -0.52212,0.10306 -0.71094,0.29078c-0.18881,0.18771 -0.29496,0.44298 -0.29492,0.70922v23c0,0.55228 0.44772,1 1,1c0.55228,0 1,-0.44772 1,-1v-21.48437l12,5.14453v34.33984h-14v-3.10156c1.80018,0.36952 3.65798,-0.27836 4.83798,-1.68719c1.18001,-1.40883 1.49198,-3.35146 0.81243,-5.05892c-0.67955,-1.70746 -2.24107,-2.90446 -4.06643,-3.11718c-0.73378,-1.73205 -2.37909,-2.90439 -4.2558,-3.03241c-1.87671,-0.12801 -3.66598,0.81005 -4.62815,2.42642c-0.96218,1.61637 -0.9338,3.63643 0.07341,5.22513c-0.50141,0.67939 -0.77242,1.50132 -0.77344,2.3457c0.00235,2.20816 1.79184,3.99765 4,4c0.70567,-0.00788 1.39631,-0.20482 2,-0.57031v2.57031h-7c-0.55228,0 -1,0.44772 -1,1c0,0.55228 0.44772,1 1,1h46c0.26526,0.00015 0.5197,-0.10516 0.70727,-0.29273c0.18757,-0.18757 0.29288,-0.44201 0.29273,-0.70727v-12c0.00015,-0.26526 -0.10516,-0.5197 -0.29273,-0.70727c-0.18757,-0.18757 -0.44201,-0.29288 -0.70727,-0.29273h-9v-9c0.00007,-0.26524 -0.10527,-0.51963 -0.29282,-0.70718c-0.18755,-0.18755 -0.44195,-0.29289 -0.70718,-0.29282h-2v-3c0.00007,-0.26524 -0.10527,-0.51963 -0.29282,-0.70718c-0.18755,-0.18755 -0.44195,-0.29289 -0.70718,-0.29282h-6c-0.26524,-0.00007 -0.51963,0.10527 -0.70718,0.29282c-0.18755,0.18755 -0.29289,0.44195 -0.29282,0.70718v3h-1v-13c0.00033,-0.40071 -0.23879,-0.76284 -0.60742,-0.91992l-13.99805,-6c-0.12291,-0.05239 -0.25507,-0.07962 -0.38867,-0.08008zM14,10c-0.55228,0 -1,0.44772 -1,1c0,0.55228 0.44772,1 1,1h2c0.55228,0 1,-0.44772 1,-1c0,-0.55228 -0.44772,-1 -1,-1zM20,10c-0.55228,0 -1,0.44772 -1,1c0,0.55228 0.44772,1 1,1h2c0.55228,0 1,-0.44772 1,-1c0,-0.55228 -0.44772,-1 -1,-1zM14,14c-0.55228,0 -1,0.44772 -1,1c0,0.55228 0.44772,1 1,1h2c0.55228,0 1,-0.44772 1,-1c0,-0.55228 -0.44772,-1 -1,-1zM20,14c-0.55228,0 -1,0.44772 -1,1c0,0.55228 0.44772,1 1,1h2c0.55228,0 1,-0.44772 1,-1c0,-0.55228 -0.44772,-1 -1,-1zM14,18c-0.55228,0 -1,0.44772 -1,1c0,0.55228 0.44772,1 1,1h2c0.55228,0 1,-0.44772 1,-1c0,-0.55228 -0.44772,-1 -1,-1zM20,18c-0.55228,0 -1,0.44772 -1,1c0,0.55228 0.44772,1 1,1h2c0.55228,0 1,-0.44772 1,-1c0,-0.55228 -0.44772,-1 -1,-1zM29,18h4v2h-4zM14,22c-0.55228,0 -1,0.44772 -1,1c0,0.55228 0.44772,1 1,1h2c0.55228,0 1,-0.44772 1,-1c0,-0.55228 -0.44772,-1 -1,-1zM20,22c-0.55228,0 -1,0.44772 -1,1c0,0.55228 0.44772,1 1,1h2c0.55228,0 1,-0.44772 1,-1c0,-0.55228 -0.44772,-1 -1,-1zM26,22h10v20h-10zM28,24v2h2v-2zM32,24v2h2v-2zM14,26c-0.55228,0 -1,0.44772 -1,1c0,0.55228 0.44772,1 1,1h2c0.55228,0 1,-0.44772 1,-1c0,-0.55228 -0.44772,-1 -1,-1zM20,26c-0.55228,0 -1,0.44772 -1,1c0,0.55228 0.44772,1 1,1h2c0.55228,0 1,-0.44772 1,-1c0,-0.55228 -0.44772,-1 -1,-1zM6.92383,28c1.39574,-0.03205 2.62795,0.90589 2.96875,2.25977c0.11275,0.44312 0.51152,0.75344 0.96875,0.75391c0.03565,-0.001 0.10107,-0.00683 0.17578,-0.01367c1.29085,0.0116 2.42955,0.84764 2.82721,2.07576c0.39767,1.22812 -0.03487,2.57293 -1.07392,3.33896c-1.03905,0.76602 -2.45163,0.78149 -3.5072,0.03841c-0.24157,-0.1703 -0.54614,-0.22492 -0.83184,-0.14916c-0.28569,0.07576 -0.52319,0.27411 -0.64863,0.54174c-0.32337,0.70429 -1.02776,1.15531 -1.80273,1.1543c-0.84103,0.00518 -1.59432,-0.51944 -1.88111,-1.31008c-0.28679,-0.79064 -0.04501,-1.6762 0.60376,-2.21141c0.20869,-0.17625 0.33616,-0.43022 0.35276,-0.70288c0.0166,-0.27265 -0.07911,-0.54022 -0.26487,-0.74048c-0.8068,-0.86058 -1.03234,-2.11502 -0.57582,-3.20273c0.45652,-1.08771 1.50978,-1.80543 2.6891,-1.83243zM28,28v2h2v-2zM32,28v2h2v-2zM20,30c-0.55228,0 -1,0.44772 -1,1c0,0.55228 0.44772,1 1,1h2c0.55228,0 1,-0.44772 1,-1c0,-0.55228 -0.44772,-1 -1,-1zM28,32v2h2v-2zM32,32v2h2v-2zM38,32h8v10h-1v-3c0.00015,-0.26526 -0.10516,-0.5197 -0.29273,-0.70727c-0.18757,-0.18757 -0.44201,-0.29288 -0.70727,-0.29273h-4c-0.26526,-0.00015 -0.5197,0.10516 -0.70727,0.29273c-0.18757,0.18757 -0.29288,0.44201 -0.29273,0.70727v3h-1zM20,34c-0.55228,0 -1,0.44772 -1,1c0,0.55228 0.44772,1 1,1h2c0.55228,0 1,-0.44772 1,-1c0,-0.55228 -0.44772,-1 -1,-1zM39,34v2h2v-2zM43,34v2h2v-2zM28,36v2h2v-2zM32,36v2h2v-2zM20,38c-0.55228,0 -1,0.44772 -1,1c0,0.55228 0.44772,1 1,1h2c0.55228,0 1,-0.44772 1,-1c0,-0.55228 -0.44772,-1 -1,-1zM41,40h2v2h-2zM1,46c-0.55228,0 -1,0.44772 -1,1c0,0.55228 0.44772,1 1,1h46c0.55228,0 1,-0.44772 1,-1c0,-0.55228 -0.44772,-1 -1,-1z"></path></g></g></g></svg>