<svg xmlns="http://www.w3.org/2000/svg"  viewBox="0 0 128 128" width="128px" height="128px"><path fill="#fff" d="M58,26.2c0-5-4-9-9-9c-5,0-9,4-9,9c0,0,0,0,0,0c-1.7-1.3-3.7-2-6-2c-5.5,0-10,4.5-10,10c0,1.1,0.2,2.1,0.5,3c-0.2,0-0.3,0-0.5,0c-6.1,0-11,4.9-11,11c0,2.4,0.7,4.5,2,6.3c-4.2,2.7-7,7.3-7,12.7c0,5.3,2.8,10,6.9,12.6c-1.2,2.2-1.9,4.7-1.9,7.4c0,8.3,6.7,15,15,15c0.3,0,0.6,0,0.9,0c2,5.8,7.6,10,14.1,10c8.3,0,15-6.7,15-15C58,89,58,31.2,58,26.2z"/><path fill="#fff" d="M7.9,67c0-5.3,2.8-10,7-12.7c-1.3-1.8-2-4-2-6.3c0-6.1,4.9-11,11-11c0.2,0,0.3,0,0.5,0c-0.3-1-0.5-2-0.5-3c0-5.5,4.5-10,10-10c1.5,0,2.9,0.3,4.1,0.9c-8.8,11-14.3,26.5-14.3,43.9c0,16.2,4.8,30.9,12.7,41.7c-3.5-1.7-6.3-4.8-7.6-8.5c-0.3,0-0.6,0-0.9,0c-8.3,0-15-6.7-15-15c0-2.7,0.7-5.2,1.9-7.4C10.7,77,7.9,72.3,7.9,67z"/><path fill="#444b54" d="M15 57.3c-.9 0-1.9-.4-2.5-1.3-1.7-2.4-2.6-5.2-2.6-8.1 0-7.7 6.3-14 14-14 1.7 0 3 1.3 3 3s-1.3 3-3 3c-4.4 0-8 3.6-8 8 0 1.7.5 3.2 1.5 4.6 1 1.4.6 3.2-.7 4.2C16.2 57.1 15.6 57.3 15 57.3zM23 85.2c-9.9 0-18-8.1-18-18 0-1.7 1.3-3 3-3s3 1.3 3 3c0 6.6 5.4 12 12 12s12-5.4 12-12v-5c0-1.7 1.3-3 3-3s3 1.3 3 3v5C41 77.2 32.9 85.2 23 85.2z"/><path fill="#444b54" d="M34,47.2c-7.2,0-13-5.8-13-13c0-1.7,1.3-3,3-3s3,1.3,3,3c0,3.9,3.1,7,7,7c1.7,0,3,1.3,3,3S35.7,47.2,34,47.2z"/><path fill="#fbe1e3" d="M70,26.2c0-5,4-9,9-9c5,0,9,4,9,9c0,0,0,0,0,0c1.7-1.3,3.7-2,6-2c5.5,0,10,4.5,10,10c0,1.1-0.2,2.1-0.5,3c0.2,0,0.3,0,0.5,0c6.1,0,11,4.9,11,11c0,2.4-0.7,4.5-2,6.3c4.2,2.7,7,7.3,7,12.7c0,5.3-2.8,10-6.9,12.6c1.2,2.2,1.9,4.7,1.9,7.4c0,8.3-6.7,15-15,15c-0.3,0-0.6,0-0.9,0c-2,5.8-7.6,10-14.1,10c-8.3,0-15-6.7-15-15C70,89,70,31.2,70,26.2z"/><path fill="#fff" d="M70,26.2c0-5,4-9,9-9c5,0,9,4,9,9c0,0,0,0,0,0c1.7-1.3,3.7-2,6-2c5.5,0,10,4.5,10,10c0,1.1-0.2,2.1-0.5,3c0.2,0,0.3,0,0.5,0c6.1,0,11,4.9,11,11c0,2.4-0.7,4.5-2,6.3c4.2,2.7,7,7.3,7,12.7c0,5.3-2.8,10-6.9,12.6c1.2,2.2,1.9,4.7,1.9,7.4c0,8.3-6.7,15-15,15c-0.3,0-0.6,0-0.9,0c-2,5.8-7.6,10-14.1,10c-8.3,0-15-6.7-15-15C70,89,70,31.2,70,26.2z"/><path fill="#71c2ff" d="M103.4 85.2c-9.9 0-18-8.1-18-18 0-1.7 1.3-3 3-3s3 1.3 3 3c0 6.6 5.4 12 12 12 1.7 0 3 1.3 3 3S105.1 85.2 103.4 85.2zM84.4 37.2c-1.7 0-3-1.3-3-3 0-7.2 5.8-13 13-13 1.7 0 3 1.3 3 3s-1.3 3-3 3c-3.9 0-7 3.1-7 7C87.4 35.9 86.1 37.2 84.4 37.2z"/><path fill="#71c2ff" d="M85,115.2c-9.9,0-18-8.1-18-18v-71c0-6.6,5.4-12,12-12c5.1,0,9.4,3.1,11.2,7.6c1.2-0.4,2.5-0.6,3.8-0.6c7.2,0,13,5.8,13,13c0,0.1,0,0.2,0,0.3c6.3,1.4,11,7,11,13.7c0,1.9-0.4,3.8-1.1,5.5c3.9,3.4,6.1,8.3,6.1,13.5c0,5.3-2.3,10.2-6.2,13.6c0.8,2,1.2,4.2,1.2,6.4c0,9.5-7.5,17.4-16.9,18C98.1,111.3,91.9,115.2,85,115.2z M79,20.2c-3.3,0-6,2.7-6,6v71c0,6.6,5.4,12,12,12c5.1,0,9.6-3.2,11.3-8c0.4-1.3,1.7-2.1,3-2l0.3,0c0.1,0,0.3,0,0.4,0c6.6,0,12-5.4,12-12c0-2.1-0.5-4.1-1.6-5.9c-0.8-1.4-0.3-3.1,1-4c3.5-2.2,5.6-6,5.6-10.1c0-4.1-2.1-7.9-5.6-10.1c-0.7-0.4-1.2-1.1-1.3-1.9c-0.2-0.8,0-1.6,0.5-2.3c1-1.4,1.5-2.9,1.5-4.6c0-4.4-3.6-8-8-8l-0.3,0c-1,0.1-1.9-0.4-2.5-1.2c-0.6-0.8-0.8-1.8-0.5-2.7c0.2-0.7,0.3-1.4,0.3-2.1c0-3.9-3.1-7-7-7c-1.5,0-3,0.5-4.2,1.4c-0.9,0.7-2.1,0.8-3.1,0.3c-1-0.5-1.7-1.5-1.7-2.7c0,0,0,0,0-0.1C85,22.9,82.3,20.2,79,20.2z"/><path fill="#444b54" d="M43,115.2c-6.9,0-13.1-4-16.1-10c-9.4-0.6-16.9-8.4-16.9-18c0-1.7,1.3-3,3-3s3,1.3,3,3c0,6.6,5.4,12,12,12c0.1,0,0.3,0,0.4,0l0.3,0c1.4-0.1,2.6,0.7,3,2c1.7,4.8,6.2,8,11.3,8c6.6,0,12-5.4,12-12v-71c0-3.3-2.7-6-6-6c-3.3,0-6,2.7-6,5.9c0,0,0,0,0,0.1c0,1.1-0.6,2.2-1.7,2.7c-1,0.5-2.2,0.4-3.1-0.3c-1.2-0.9-2.7-1.4-4.2-1.4c-3.9,0-7,3.1-7,7c0,0.7,0.1,1.4,0.3,2.1c0.5,1.6-0.4,3.3-2,3.8c-1.6,0.5-3.3-0.4-3.8-2c-0.4-1.3-0.6-2.6-0.6-3.9c0-7.2,5.8-13,13-13c1.3,0,2.6,0.2,3.8,0.6c1.8-4.4,6.1-7.6,11.2-7.6c6.6,0,12,5.4,12,12v71C61,107.2,52.9,115.2,43,115.2z"/><path fill="#444b54" d="M14.9,82.9c-0.6,0-1.1-0.2-1.6-0.5C8.1,79.1,5,73.4,5,67.2C5,61,8.1,55.4,13.4,52c1.4-0.9,3.3-0.5,4.1,0.9c0.9,1.4,0.5,3.3-0.9,4.1c-3.5,2.2-5.6,6-5.6,10.1c0,4.1,2.1,7.9,5.6,10.1c1.4,0.9,1.8,2.7,0.9,4.1C16.9,82.4,15.9,82.9,14.9,82.9z"/><path fill="#71c2ff" d="M84.2 51c-.8 0-1.6-.3-2.1-.9-.6-.6-.9-1.3-.9-2.1s.3-1.6.9-2.1c1.1-1.1 3.1-1.1 4.2 0 .6.6.9 1.3.9 2.1s-.3 1.6-.9 2.1C85.8 50.7 85 51 84.2 51zM113 57.6h-5c-1.7 0-3-1.3-3-3s1.3-3 3-3h5c1.7 0 3 1.3 3 3S114.6 57.6 113 57.6z"/><path fill="#444b54" d="M20,57.6h-5c-1.7,0-3-1.3-3-3s1.3-3,3-3h5c1.7,0,3,1.3,3,3S21.7,57.6,20,57.6z"/></svg>