<svg xmlns="http://www.w3.org/2000/svg" xmlns:xlink="http://www.w3.org/1999/xlink" viewBox="0,0,256,256" width="50px" height="50px" fill-rule="nonzero"><g fill="#22c55e" fill-rule="nonzero" stroke="none" stroke-width="1" stroke-linecap="butt" stroke-linejoin="miter" stroke-miterlimit="10" stroke-dasharray="" stroke-dashoffset="0" font-family="none" font-weight="none" font-size="none" text-anchor="none" style="mix-blend-mode: normal"><g transform="scale(3.55556,3.55556)"><path d="M35,3c-1.657,0 -3,1.343 -3,3v5c0,1.657 1.343,3 3,3c1.657,0 3,-1.343 3,-3v-5c0,-1.657 -1.343,-3 -3,-3zM25.25391,6.10938c-0.57764,0.01983 -1.15533,0.20739 -1.6582,0.57227c-1.34,0.973 -1.63906,2.84845 -0.66406,4.18945l2.58008,3.55078c0.587,0.807 1.50169,1.23633 2.42969,1.23633c0.612,0 1.22877,-0.18527 1.75977,-0.57226c1.34,-0.973 1.63906,-2.85041 0.66406,-4.19141l-2.58008,-3.55078c-0.6075,-0.8375 -1.56853,-1.26743 -2.53125,-1.23437zM44.74414,6.10938c-0.96247,-0.03321 -1.92117,0.39625 -2.5293,1.23438l-2.58008,3.55078c-0.975,1.34 -0.67789,3.21741 0.66211,4.19141c0.533,0.386 1.15072,0.57226 1.76172,0.57226c0.927,0 1.84073,-0.42933 2.42773,-1.23633l2.58008,-3.55078c0.975,-1.34 0.67789,-3.21545 -0.66211,-4.18945c-0.50325,-0.36525 -1.08267,-0.55234 -1.66016,-0.57227zM53.26953,13.0625c-1.28847,-0.10537 -2.67906,0.44492 -3.69531,1.29492c-1.304,1.091 -20.01077,16.80278 -20.00977,16.80078c-0.313,0.262 -0.78536,0.05639 -0.81836,-0.34961c-1.167,-14.286 -7.86561,-15.8608 -9.97461,-14.0918c-1.911,1.603 -1.43542,3.08948 -0.60742,5.39648c1.749,4.878 -3.21738,16.20081 -3.48437,19.25781c-0.266,3.04 -1.03795,8.81416 4.74805,15.78516c0.977,1.177 10.36983,11.10537 23.92383,3.98438c4.736,-2.489 8.37752,-5.91844 10.60352,-7.77344c2.757,-2.296 4.33973,-4.86852 3.67773,-6.85352c-0.372,-1.117 -1.02775,-2.1948 -1.59375,-2.5918c-0.535,-0.374 -1.22872,-0.57172 -1.76172,-0.13672c-0.683,0.558 -3.57205,2.98192 -4.24805,3.54492c-0.587,0.489 -1.04291,0.70569 -1.37891,0.30469c-0.345,-0.411 0.08739,-0.93664 0.52539,-1.30664c0.478,-0.404 4.68686,-3.89536 5.63086,-4.69336c1.247,-1.054 1.401,-3.02524 0.625,-4.86523c-0.477,-1.131 -0.98888,-1.7377 -1.67187,-2.0957c-0.53,-0.277 -1.43622,-0.36984 -2.07422,0.16016c-0.781,0.648 -5.71348,4.77905 -6.27148,5.24805c-0.7,0.589 -1.03058,0.77152 -1.39258,0.35352c-0.362,-0.417 -0.03009,-0.81086 0.50391,-1.25586c0.712,-0.593 6.14628,-5.14006 7.36328,-6.16406c1.507,-1.268 1.25158,-3.81895 0.51758,-5.25195c-0.344,-0.672 -0.61203,-1.14906 -1.08203,-1.66406c-0.47,-0.515 -1.78775,-0.58458 -2.46875,-0.01758c-0.779,0.649 -6.27167,5.23108 -7.26367,6.08008c-0.558,0.477 -0.94458,0.67502 -1.26758,0.29102c-0.323,-0.384 -0.08919,-0.72184 0.50781,-1.21484c0.986,-0.814 12.32644,-10.29552 14.02344,-11.72852c1.829,-1.544 2.10853,-3.83866 0.51953,-5.47266c-0.59587,-0.61275 -1.33239,-0.91139 -2.10547,-0.97461z"></path></g></g></svg>