<svg width="145" height="37" viewBox="0 0 145 37" fill="none" xmlns="http://www.w3.org/2000/svg">
<path d="M27.45 33.6H13.05V5.46979H27.45C28.334 5.46979 29.05 6.16914 29.05 7.03258V32.0372C29.05 32.9006 28.334 33.6 27.45 33.6Z" fill="#00B410"/>
<path d="M7.00762 2.51923C6.89482 2.46375 6.77242 2.4364 6.65002 2.4364V30.5666C6.77242 30.5666 6.89482 30.594 7.00762 30.6495L13.05 33.6V5.46978L7.00762 2.51923Z" fill="#006C09"/>
<path d="M6.2924 2.51922L1.1348 5.03765C0.5924 5.30255 0.25 5.84405 0.25 6.43557V32.3357C0.25 32.9162 0.8756 33.2944 1.4076 33.0342L6.2924 30.6486C6.4052 30.5939 6.5276 30.5658 6.65 30.5658V2.43561C6.5276 2.43639 6.4052 2.46374 6.2924 2.51922Z" fill="#88F888"/>
<path opacity="0.05" d="M29.05 7.03258C29.05 6.16914 28.334 5.46979 27.45 5.46979H14.65C14.1364 6.67314 13.85 7.99213 13.85 9.37676C13.85 12.1288 14.9756 14.6215 16.7956 16.4515C16.806 16.4616 23.4332 22.941 23.4332 22.941C23.8844 23.3817 24.6164 23.3817 25.0676 22.941C25.0676 22.941 27.202 20.8546 29.0508 19.0473L29.05 7.03258Z" fill="black"/>
<path opacity="0.07" d="M29.0501 7.03258C29.0501 6.16914 28.3341 5.46979 27.4501 5.46979H15.0909C14.5541 6.66688 14.2501 7.98588 14.2501 9.37676C14.2501 12.0233 15.3413 14.4113 17.0821 16.1788C17.0917 16.1889 23.4645 22.4182 23.4645 22.4182C23.8981 22.8417 24.6021 22.8417 25.0357 22.4182C25.0357 22.4182 27.2373 20.2663 29.0501 18.4941V7.03258Z" fill="black"/>
<path d="M31.1308 15.9069C32.8116 14.2183 33.85 11.9171 33.85 9.37674C33.85 4.19844 29.5516 0 24.25 0C18.9484 0 14.65 4.19844 14.65 9.37674C14.65 11.9171 15.6884 14.2183 17.3692 15.9069C17.3788 15.9162 23.4964 21.897 23.4964 21.897C23.9132 22.3042 24.5884 22.3042 25.0052 21.897C25.0052 21.897 31.122 15.9162 31.1308 15.9069Z" fill="url(#paint0_linear_302_2)"/>
<path d="M24.25 13.7525C26.7243 13.7525 28.73 11.7934 28.73 9.37673C28.73 6.96003 26.7243 5.00092 24.25 5.00092C21.7758 5.00092 19.77 6.96003 19.77 9.37673C19.77 11.7934 21.7758 13.7525 24.25 13.7525Z" fill="url(#paint1_radial_302_2)"/>
<path d="M24.25 13.1275C26.3708 13.1275 28.09 11.4482 28.09 9.3768C28.09 7.30534 26.3708 5.6261 24.25 5.6261C22.1293 5.6261 20.41 7.30534 20.41 9.3768C20.41 11.4482 22.1293 13.1275 24.25 13.1275Z" fill="#F9F9F9"/>
<path d="M24.406 26.746C24.7727 27.3767 24.956 27.9853 24.956 28.572C24.956 28.704 24.9413 28.8213 24.912 28.924C24.8973 29.0413 24.8753 29.1587 24.846 29.276C24.5967 29.2467 24.3327 29.2247 24.054 29.21C23.79 29.1953 23.5113 29.188 23.218 29.188C22.866 29.188 22.5067 29.1953 22.14 29.21C21.788 29.2393 21.392 29.276 20.952 29.32C20.512 29.364 20.0207 29.4227 19.478 29.496C18.9353 29.5693 18.3047 29.6647 17.586 29.782C17.2487 29.6647 16.9113 29.43 16.574 29.078C16.2367 28.7407 15.9213 28.33 15.628 27.846C15.7747 27.5233 15.958 27.1273 16.178 26.658C16.398 26.174 16.6547 25.5947 16.948 24.92C17.2413 24.2307 17.564 23.4313 17.916 22.522C18.2827 21.598 18.6713 20.5347 19.082 19.332C19.346 18.54 19.5733 17.8433 19.764 17.242C19.9547 16.6407 20.1233 16.0613 20.27 15.504C20.4313 14.932 20.5853 14.338 20.732 13.722C20.8787 13.106 21.04 12.3947 21.216 11.588C21.8027 11.7053 22.3087 11.9253 22.734 12.248C23.174 12.556 23.592 13.0033 23.988 13.59C23.8707 13.7807 23.7167 14.0887 23.526 14.514C23.3353 14.9393 23.108 15.46 22.844 16.076C22.5947 16.6773 22.316 17.3667 22.008 18.144C21.7 18.9067 21.3773 19.728 21.04 20.608C20.7173 21.4733 20.402 22.2873 20.094 23.05C19.786 23.8127 19.5073 24.502 19.258 25.118C19.0233 25.734 18.8327 26.262 18.686 26.702C18.5393 27.142 18.466 27.472 18.466 27.692C18.7007 27.6773 18.9133 27.6627 19.104 27.648C19.2947 27.6333 19.4927 27.6113 19.698 27.582C19.9033 27.538 20.1233 27.494 20.358 27.45C20.6073 27.3913 20.9007 27.318 21.238 27.23C21.5313 27.1567 21.8027 27.098 22.052 27.054C22.3013 26.9953 22.5433 26.9513 22.778 26.922C23.0273 26.878 23.2767 26.8487 23.526 26.834C23.79 26.8047 24.0833 26.7753 24.406 26.746ZM35.225 19.112C35.3717 19.112 35.5403 19.1413 35.731 19.2C35.9363 19.244 36.1197 19.31 36.281 19.398C36.4423 19.4713 36.5743 19.552 36.677 19.64C36.7943 19.728 36.853 19.8087 36.853 19.882C36.5597 20.498 36.2883 21.1213 36.039 21.752C35.7897 22.368 35.577 22.962 35.401 23.534C35.225 24.106 35.0857 24.6413 34.983 25.14C34.895 25.6387 34.851 26.0713 34.851 26.438C34.851 26.8487 34.895 27.1933 34.983 27.472C35.071 27.736 35.2177 27.9267 35.423 28.044C35.247 28.1613 35.0197 28.2567 34.741 28.33C34.4623 28.4033 34.213 28.44 33.993 28.44C33.201 28.44 32.805 27.8973 32.805 26.812C32.805 25.976 33.0837 24.832 33.641 23.38C33.3477 24.0547 33.0103 24.6927 32.629 25.294C32.2477 25.8807 31.859 26.4013 31.463 26.856C31.067 27.3107 30.6637 27.6847 30.253 27.978C29.857 28.2567 29.4903 28.4253 29.153 28.484C28.6103 28.4547 28.1703 28.198 27.833 27.714C27.4957 27.2153 27.327 26.5847 27.327 25.822C27.327 25.0007 27.503 24.1353 27.855 23.226C28.207 22.3167 28.6543 21.4733 29.197 20.696C29.7543 19.9187 30.3557 19.2733 31.001 18.76C31.6463 18.232 32.2697 17.9533 32.871 17.924C33.0177 17.968 33.179 18.056 33.355 18.188C33.5457 18.32 33.7217 18.474 33.883 18.65C34.059 18.826 34.2057 19.0093 34.323 19.2C34.4403 19.376 34.5063 19.53 34.521 19.662C33.9343 19.75 33.3257 20.036 32.695 20.52C32.079 21.004 31.5143 21.5907 31.001 22.28C30.5023 22.9547 30.0917 23.6807 29.769 24.458C29.4463 25.2353 29.285 25.9613 29.285 26.636C29.285 26.9147 29.3877 27.0907 29.593 27.164C30.0183 27.076 30.5097 26.7167 31.067 26.086C31.6243 25.4407 32.299 24.4507 33.091 23.116C33.2377 22.852 33.399 22.5587 33.575 22.236C33.7657 21.9133 33.9563 21.576 34.147 21.224C34.3377 20.872 34.521 20.52 34.697 20.168C34.8877 19.8013 35.0637 19.4493 35.225 19.112ZM42.743 17.33C43.1243 17.4473 43.4837 17.7113 43.821 18.122C44.1583 18.518 44.4077 18.958 44.569 19.442C44.4077 19.838 44.1583 20.3147 43.821 20.872C43.4837 21.4293 43.1463 22.0013 42.809 22.588C42.4717 23.16 42.1637 23.71 41.885 24.238C41.621 24.7513 41.467 25.1767 41.423 25.514C41.6577 25.2647 41.9143 24.9787 42.193 24.656C42.4863 24.3187 42.765 23.9887 43.029 23.666C43.3077 23.3287 43.5643 23.028 43.799 22.764C44.0337 22.4853 44.217 22.28 44.349 22.148C44.6277 21.8547 44.9577 21.5173 45.339 21.136C45.7203 20.74 46.1163 20.3733 46.527 20.036C46.9523 19.684 47.3777 19.3907 47.803 19.156C48.2283 18.9067 48.617 18.782 48.969 18.782C49.3503 18.782 49.6657 18.914 49.915 19.178C50.179 19.4273 50.3843 19.6913 50.531 19.97C50.531 19.9993 50.4723 20.0433 50.355 20.102C50.2523 20.146 50.0983 20.2853 49.893 20.52C49.6877 20.784 49.453 21.1507 49.189 21.62C48.9397 22.0747 48.6903 22.5733 48.441 23.116C48.2063 23.644 48.0083 24.1867 47.847 24.744C47.6857 25.3013 47.605 25.8073 47.605 26.262C47.605 26.6287 47.649 26.8633 47.737 26.966C47.8397 27.0687 47.979 27.12 48.155 27.12C48.3163 27.12 48.485 27.0833 48.661 27.01C48.837 26.9367 48.9763 26.9 49.079 26.9C49.1377 26.9293 49.1817 26.9953 49.211 27.098C49.255 27.186 49.277 27.2667 49.277 27.34C49.1597 27.4427 49.0203 27.5453 48.859 27.648C48.6977 27.7507 48.529 27.846 48.353 27.934C48.177 28.022 48.001 28.0953 47.825 28.154C47.6637 28.2127 47.517 28.242 47.385 28.242C46.9597 28.242 46.6077 28.176 46.329 28.044C46.065 27.9267 45.8523 27.7653 45.691 27.56C45.5443 27.3547 45.4417 27.1127 45.383 26.834C45.3243 26.5407 45.295 26.2327 45.295 25.91C45.295 25.734 45.3097 25.536 45.339 25.316C45.3683 25.096 45.427 24.8393 45.515 24.546C45.603 24.238 45.7277 23.8787 45.889 23.468C46.0503 23.0427 46.2557 22.5367 46.505 21.95C46.4757 21.95 46.2777 22.0527 45.911 22.258C45.5443 22.4633 45.1483 22.7787 44.723 23.204C44.0337 23.864 43.4103 24.5167 42.853 25.162C42.3103 25.8073 41.753 26.526 41.181 27.318C40.8583 27.7727 40.5723 28.154 40.323 28.462C40.0883 28.7847 39.883 28.9973 39.707 29.1C39.399 28.924 39.1717 28.6747 39.025 28.352C38.8783 28.044 38.7683 27.7213 38.695 27.384C38.695 27.1053 38.7317 26.7533 38.805 26.328C38.893 25.9027 39.003 25.4333 39.135 24.92C39.2817 24.392 39.4577 23.842 39.663 23.27C39.8683 22.698 40.0957 22.126 40.345 21.554C40.9023 20.2633 41.4083 19.2513 41.863 18.518C42.3323 17.7847 42.6257 17.3887 42.743 17.33ZM57.0659 17.726C57.3592 17.726 57.6965 17.814 58.0779 17.99C58.4592 18.166 58.7965 18.3933 59.0899 18.672C59.0165 18.0853 58.9212 17.5353 58.8039 17.022C58.7012 16.494 58.5399 15.9513 58.3199 15.394C58.1145 14.8367 57.8359 14.228 57.4839 13.568C57.1319 12.908 56.6919 12.1527 56.1639 11.302C56.2079 11.17 56.3032 11.016 56.4499 10.84C56.6112 10.664 56.7872 10.5027 56.9779 10.356C57.1832 10.1947 57.3885 10.0553 57.5939 9.93802C57.8139 9.82069 58.0192 9.74735 58.2099 9.71802C58.6205 10.1727 59.0092 10.7447 59.3759 11.434C59.7425 12.1087 60.0652 12.842 60.3439 13.634C60.6225 14.4113 60.8352 15.218 60.9819 16.054C61.1432 16.89 61.2239 17.6893 61.2239 18.452C61.2239 19.2147 61.1359 19.9993 60.9599 20.806C60.7985 21.6127 60.5639 22.4047 60.2559 23.182C59.9625 23.9447 59.6179 24.6707 59.2219 25.36C58.8259 26.0493 58.3932 26.6653 57.9239 27.208C57.4692 27.7507 56.9925 28.1907 56.4939 28.528C55.9952 28.88 55.4965 29.1 54.9979 29.188C53.9859 29.0707 53.2085 28.7407 52.6659 28.198C52.1379 27.67 51.8739 26.9367 51.8739 25.998C51.8739 25.4993 51.9472 24.9567 52.0939 24.37C52.2552 23.7833 52.4605 23.204 52.7099 22.632C52.9739 22.0453 53.2745 21.4807 53.6119 20.938C53.9639 20.3807 54.3305 19.882 54.7119 19.442C55.1079 19.002 55.5039 18.628 55.8999 18.32C56.2959 18.012 56.6845 17.814 57.0659 17.726ZM54.8219 28.308C55.3352 28.132 55.8485 27.7433 56.3619 27.142C56.8752 26.5407 57.3372 25.8367 57.7479 25.03C58.1585 24.2087 58.4885 23.336 58.7379 22.412C59.0019 21.4733 59.1339 20.5713 59.1339 19.706C59.1339 19.4567 59.1339 19.3027 59.1339 19.244C59.1339 19.1853 59.1265 19.1267 59.1119 19.068C58.7599 19.2147 58.3859 19.464 57.9899 19.816C57.5939 20.168 57.1979 20.5787 56.8019 21.048C56.4059 21.5027 56.0319 22.0013 55.6799 22.544C55.3279 23.0867 55.0125 23.6293 54.7339 24.172C54.4552 24.7147 54.2352 25.2353 54.0739 25.734C53.9125 26.2327 53.8319 26.6727 53.8319 27.054C53.8319 27.7873 54.1619 28.2053 54.8219 28.308ZM77.1931 13.172C77.2371 13.4213 77.2664 13.5973 77.2811 13.7C77.3104 13.788 77.3251 13.9127 77.3251 14.074C77.3251 14.558 77.2151 15.0127 76.9951 15.438C76.7898 15.8487 76.5038 16.142 76.1371 16.318C75.8438 15.922 75.4844 15.5847 75.0591 15.306C74.6338 15.0127 74.1644 14.778 73.6511 14.602C73.1524 14.4113 72.6318 14.272 72.0891 14.184C71.5464 14.096 71.0184 14.052 70.5051 14.052C69.9918 14.052 69.5078 14.096 69.0531 14.184C68.6131 14.2573 68.2171 14.3673 67.8651 14.514C67.5278 14.646 67.2564 14.8147 67.0511 15.02C66.8604 15.2253 66.7651 15.46 66.7651 15.724C66.8091 16.0467 67.0071 16.3767 67.3591 16.714C67.7111 17.0367 68.1438 17.3593 68.6571 17.682C69.1704 17.99 69.7351 18.298 70.3511 18.606C70.9818 18.914 71.5978 19.2073 72.1991 19.486C72.9471 19.838 73.5924 20.168 74.1351 20.476C74.6778 20.7693 75.1251 21.0993 75.4771 21.466C75.8291 21.818 76.0931 22.2213 76.2691 22.676C76.4451 23.1307 76.5331 23.6807 76.5331 24.326C76.5331 25.074 76.4084 25.778 76.1591 26.438C75.9098 27.0833 75.5431 27.648 75.0591 28.132C74.5898 28.616 74.0178 28.99 73.3431 29.254C72.6684 29.5327 71.9131 29.672 71.0771 29.672C70.2558 29.672 69.3684 29.5473 68.4151 29.298C67.4618 29.0487 66.5671 28.704 65.7311 28.264C64.9098 27.8387 64.2204 27.3473 63.6631 26.79C63.1204 26.218 62.8491 25.6167 62.8491 24.986C62.8491 24.6927 62.9298 24.3187 63.0911 23.864C63.2671 23.4093 63.5751 22.9327 64.0151 22.434C64.0591 22.874 64.2938 23.3947 64.7191 23.996C65.1591 24.5973 65.8118 25.1547 66.6771 25.668C67.4838 26.1373 68.3124 26.482 69.1631 26.702C70.0284 26.9073 70.8351 27.01 71.5831 27.01C72.4044 27.01 73.0718 26.9073 73.5851 26.702C74.0984 26.4967 74.5018 26.2547 74.7951 25.976C75.0884 25.6827 75.2938 25.3893 75.4111 25.096C75.5284 24.8027 75.5944 24.568 75.6091 24.392C75.5944 24.0987 75.4551 23.82 75.1911 23.556C74.9418 23.2773 74.5971 23.0133 74.1571 22.764C73.7318 22.5 73.2331 22.236 72.6611 21.972C72.0891 21.708 71.4951 21.444 70.8791 21.18C69.9551 20.7693 69.1558 20.388 68.4811 20.036C67.8211 19.6693 67.2711 19.3027 66.8311 18.936C66.4058 18.5547 66.0904 18.1587 65.8851 17.748C65.6944 17.3373 65.5991 16.868 65.5991 16.34C65.5991 15.5187 65.8484 14.7413 66.3471 14.008C66.8458 13.2747 67.5644 12.7173 68.5031 12.336C68.9724 12.1307 69.4711 11.984 69.9991 11.896C70.5418 11.808 71.0698 11.764 71.5831 11.764C72.5511 11.764 73.4971 11.896 74.4211 12.16C75.3451 12.424 76.2691 12.7613 77.1931 13.172ZM77.8124 35.282C77.607 35.2233 77.4897 35.0033 77.4604 34.622C77.4017 34.4313 77.3577 34.204 77.3284 33.94C77.3137 33.676 77.3064 33.3753 77.3064 33.038C77.3064 32.73 77.3577 32.3047 77.4604 31.762C77.563 31.234 77.7024 30.6327 77.8784 29.958C78.069 29.2833 78.2964 28.5573 78.5604 27.78C78.8244 26.988 79.1177 26.1887 79.4404 25.382C79.8364 24.37 80.181 23.4973 80.4744 22.764C80.7677 22.016 81.0097 21.3707 81.2004 20.828C81.4057 20.2853 81.567 19.838 81.6844 19.486C81.8164 19.134 81.919 18.8333 81.9924 18.584C82.051 18.408 82.139 18.1953 82.2564 17.946C82.3737 17.6967 82.5057 17.4473 82.6524 17.198C82.8137 16.934 82.975 16.692 83.1364 16.472C83.2977 16.2373 83.4444 16.0613 83.5764 15.944C84.0897 16.0173 84.5737 16.1493 85.0284 16.34C85.483 16.5307 85.7617 16.714 85.8644 16.89C85.659 17.0807 85.4244 17.3813 85.1604 17.792C84.8964 18.188 84.6397 18.628 84.3904 19.112C84.141 19.5813 83.9137 20.0653 83.7084 20.564C83.503 21.0627 83.349 21.5027 83.2464 21.884C83.393 21.6347 83.5837 21.3633 83.8184 21.07C84.053 20.7767 84.4124 20.3733 84.8964 19.86C85.439 19.3027 85.945 18.8773 86.4144 18.584C86.8984 18.276 87.3164 18.122 87.6684 18.122C88.2257 18.122 88.6804 18.276 89.0324 18.584C89.399 18.892 89.5824 19.288 89.5824 19.772C89.5824 20.828 89.4064 21.8767 89.0544 22.918C88.7024 23.9447 88.1964 24.876 87.5364 25.712C87.287 26.0347 86.9937 26.3427 86.6564 26.636C86.319 26.9293 85.967 27.1933 85.6004 27.428C85.2337 27.648 84.8744 27.824 84.5224 27.956C84.1704 28.088 83.855 28.154 83.5764 28.154C83.3124 28.154 83.0777 28.1027 82.8724 28C82.6817 27.8827 82.5497 27.7433 82.4764 27.582C83.0484 27.2447 83.6057 26.7753 84.1484 26.174C84.691 25.5727 85.1897 24.8833 85.6444 24.106C86.1137 23.314 86.517 22.4633 86.8544 21.554C87.2064 20.6447 87.4704 19.7207 87.6464 18.782C87.089 19.0753 86.583 19.398 86.1284 19.75C85.6884 20.0873 85.2484 20.5347 84.8084 21.092C84.2804 21.7373 83.8624 22.258 83.5544 22.654C83.2464 23.05 82.9897 23.3873 82.7844 23.666C82.5937 23.9447 82.4324 24.2087 82.3004 24.458C82.183 24.6927 82.051 24.986 81.9044 25.338C81.699 25.8073 81.457 26.4307 81.1784 27.208C80.9144 27.9707 80.6357 28.8287 80.3424 29.782C80.0637 30.7353 79.7777 31.7473 79.4844 32.818C79.2057 33.9033 78.9344 34.9813 78.6704 36.052C78.509 36.0227 78.3697 35.9053 78.2524 35.7C78.135 35.568 78.047 35.4727 77.9884 35.414C77.9444 35.3553 77.8857 35.3113 77.8124 35.282ZM91.5634 27.626C91.5634 27.1127 91.6147 26.5113 91.7174 25.822C91.8201 25.118 91.9667 24.37 92.1574 23.578C92.3627 22.786 92.5974 21.9573 92.8614 21.092C93.1401 20.2267 93.4481 19.3613 93.7854 18.496C94.0787 17.7187 94.4161 16.934 94.7974 16.142C95.1934 15.35 95.6187 14.5727 96.0734 13.81C96.5281 13.0473 96.9974 12.3213 97.4814 11.632C97.9801 10.9427 98.4787 10.312 98.9774 9.74002C99.2121 9.74002 99.4614 9.76935 99.7254 9.82802C100.004 9.88669 100.268 9.96735 100.517 10.07C100.781 10.158 101.016 10.268 101.221 10.4C101.441 10.532 101.617 10.664 101.749 10.796C100.649 11.9253 99.6594 13.0693 98.7794 14.228C97.8994 15.372 97.2027 16.45 96.6894 17.462C96.4107 18.0193 96.1541 18.54 95.9194 19.024C95.6994 19.508 95.4941 19.992 95.3034 20.476C95.1127 20.9453 94.9367 21.422 94.7754 21.906C94.6287 22.3753 94.4894 22.874 94.3574 23.402C97.1734 19.8087 99.2634 18.012 100.627 18.012C101.009 18.012 101.419 18.1367 101.859 18.386C102.299 18.6353 102.688 18.9727 103.025 19.398C102.571 19.8967 102.101 20.498 101.617 21.202C101.133 21.906 100.686 22.6173 100.275 23.336C99.8794 24.04 99.5494 24.7 99.2854 25.316C99.0361 25.9173 98.9114 26.3647 98.9114 26.658C98.9114 26.8047 98.9334 26.9073 98.9774 26.966C99.0214 27.01 99.1167 27.032 99.2634 27.032C99.4834 27.032 99.6594 27.0027 99.7914 26.944C99.9234 26.8853 100.004 26.856 100.033 26.856C100.107 26.9733 100.151 27.054 100.165 27.098C100.18 27.142 100.187 27.1787 100.187 27.208C100.187 27.2667 100.099 27.3547 99.9234 27.472C99.7474 27.5747 99.5347 27.6847 99.2854 27.802C99.0507 27.9047 98.8161 28 98.5814 28.088C98.3467 28.176 98.1707 28.22 98.0534 28.22C97.9067 28.22 97.7601 28.176 97.6134 28.088C97.4667 28.0147 97.3347 27.912 97.2174 27.78C97.1147 27.648 97.0267 27.5013 96.9534 27.34C96.8947 27.1787 96.8654 27.01 96.8654 26.834C96.8654 26.614 96.9241 26.2913 97.0414 25.866C97.1734 25.426 97.3494 24.92 97.5694 24.348C97.7894 23.7613 98.0534 23.1233 98.3614 22.434C98.6694 21.7447 98.9994 21.0407 99.3514 20.322C99.3514 20.2633 99.3221 20.234 99.2634 20.234C99.2194 20.234 99.1021 20.2927 98.9114 20.41C98.7354 20.5273 98.5667 20.6447 98.4054 20.762C97.8774 21.158 97.3421 21.6493 96.7994 22.236C96.2714 22.808 95.7507 23.4387 95.2374 24.128C94.7387 24.8173 94.2621 25.5507 93.8074 26.328C93.3674 27.0907 92.9861 27.8607 92.6634 28.638C92.6194 28.7407 92.5534 28.836 92.4654 28.924C92.3774 29.012 92.3041 29.056 92.2454 29.056C92.2014 29.056 92.1354 29.0047 92.0474 28.902C91.9741 28.7993 91.9007 28.6673 91.8274 28.506C91.7687 28.3593 91.7101 28.2053 91.6514 28.044C91.5927 27.8827 91.5634 27.7433 91.5634 27.626ZM112.037 18.892C111.978 19.8013 111.817 20.586 111.553 21.246C111.289 21.8913 110.907 22.4633 110.409 22.962C109.925 23.446 109.331 23.886 108.627 24.282C107.923 24.678 107.101 25.0593 106.163 25.426C106.163 25.514 106.155 25.6093 106.141 25.712C106.141 25.8 106.141 25.8953 106.141 25.998C106.141 26.1887 106.155 26.3867 106.185 26.592C106.214 26.7973 106.265 26.988 106.339 27.164C106.412 27.34 106.515 27.4867 106.647 27.604C106.779 27.7067 106.947 27.758 107.153 27.758C107.549 27.758 107.937 27.67 108.319 27.494C108.7 27.318 109.059 27.1053 109.397 26.856C109.749 26.592 110.071 26.3133 110.365 26.02C110.673 25.712 110.944 25.4333 111.179 25.184C111.325 25.316 111.45 25.4407 111.553 25.558C110.893 26.438 110.167 27.1713 109.375 27.758C108.597 28.33 107.857 28.6967 107.153 28.858C106.141 28.7407 105.349 28.374 104.777 27.758C104.219 27.1273 103.941 26.372 103.941 25.492C103.941 24.8907 104.021 24.282 104.183 23.666C104.359 23.0353 104.593 22.434 104.887 21.862C105.195 21.2753 105.547 20.7253 105.943 20.212C106.353 19.6987 106.786 19.2513 107.241 18.87C107.71 18.4887 108.187 18.188 108.671 17.968C109.169 17.748 109.661 17.638 110.145 17.638C110.819 17.726 111.45 18.144 112.037 18.892ZM110.519 19.618C110.123 19.6767 109.712 19.838 109.287 20.102C108.861 20.366 108.458 20.718 108.077 21.158C107.71 21.598 107.373 22.1113 107.065 22.698C106.757 23.2847 106.515 23.9153 106.339 24.59C107.512 24.0033 108.487 23.2847 109.265 22.434C110.042 21.5687 110.46 20.63 110.519 19.618ZM113.737 27.56C113.811 27.1347 113.935 26.5773 114.111 25.888C114.302 25.184 114.522 24.4433 114.771 23.666C115.021 22.874 115.285 22.082 115.563 21.29C115.842 20.498 116.113 19.7867 116.377 19.156C116.568 18.7013 116.737 18.3493 116.883 18.1C117.03 17.836 117.191 17.616 117.367 17.44C117.573 17.4693 117.785 17.5207 118.005 17.594C118.225 17.6673 118.438 17.7553 118.643 17.858C118.849 17.9607 119.032 18.0707 119.193 18.188C119.355 18.2907 119.479 18.3933 119.567 18.496C119.171 18.9653 118.819 19.5007 118.511 20.102C118.218 20.7033 117.917 21.4733 117.609 22.412C118.401 21.708 119.098 21.0333 119.699 20.388C120.315 19.7427 120.887 19.024 121.415 18.232C121.503 18.1587 121.657 18.122 121.877 18.122C122.083 18.122 122.281 18.1587 122.471 18.232C122.662 18.2907 122.794 18.3787 122.867 18.496C122.603 19.2 122.471 19.8967 122.471 20.586C122.471 21.2313 122.567 21.7153 122.757 22.038C122.743 22.126 122.64 22.2947 122.449 22.544C122.273 22.7933 122.075 23.028 121.855 23.248C121.459 23.0427 121.107 22.764 120.799 22.412C120.491 22.0453 120.264 21.6493 120.117 21.224C119.428 21.708 118.841 22.1847 118.357 22.654C117.873 23.1087 117.455 23.622 117.103 24.194C116.766 24.7513 116.473 25.3967 116.223 26.13C115.989 26.8633 115.761 27.736 115.541 28.748C115.409 28.7333 115.248 28.682 115.057 28.594C114.881 28.5207 114.698 28.4253 114.507 28.308C114.331 28.1907 114.17 28.066 114.023 27.934C113.877 27.802 113.781 27.6773 113.737 27.56ZM132.224 18.892C132.166 19.8013 132.004 20.586 131.74 21.246C131.476 21.8913 131.095 22.4633 130.596 22.962C130.112 23.446 129.518 23.886 128.814 24.282C128.11 24.678 127.289 25.0593 126.35 25.426C126.35 25.514 126.343 25.6093 126.328 25.712C126.328 25.8 126.328 25.8953 126.328 25.998C126.328 26.1887 126.343 26.3867 126.372 26.592C126.402 26.7973 126.453 26.988 126.526 27.164C126.6 27.34 126.702 27.4867 126.834 27.604C126.966 27.7067 127.135 27.758 127.34 27.758C127.736 27.758 128.125 27.67 128.506 27.494C128.888 27.318 129.247 27.1053 129.584 26.856C129.936 26.592 130.259 26.3133 130.552 26.02C130.86 25.712 131.132 25.4333 131.366 25.184C131.513 25.316 131.638 25.4407 131.74 25.558C131.08 26.438 130.354 27.1713 129.562 27.758C128.785 28.33 128.044 28.6967 127.34 28.858C126.328 28.7407 125.536 28.374 124.964 27.758C124.407 27.1273 124.128 26.372 124.128 25.492C124.128 24.8907 124.209 24.282 124.37 23.666C124.546 23.0353 124.781 22.434 125.074 21.862C125.382 21.2753 125.734 20.7253 126.13 20.212C126.541 19.6987 126.974 19.2513 127.428 18.87C127.898 18.4887 128.374 18.188 128.858 17.968C129.357 17.748 129.848 17.638 130.332 17.638C131.007 17.726 131.638 18.144 132.224 18.892ZM130.706 19.618C130.31 19.6767 129.9 19.838 129.474 20.102C129.049 20.366 128.646 20.718 128.264 21.158C127.898 21.598 127.56 22.1113 127.252 22.698C126.944 23.2847 126.702 23.9153 126.526 24.59C127.7 24.0033 128.675 23.2847 129.452 22.434C130.23 21.5687 130.648 20.63 130.706 19.618Z" fill="url(#paint2_linear_302_2)"/>
<defs>
<linearGradient id="paint0_linear_302_2" x1="17.4628" y1="2.74582" x2="30.7179" y2="16.3165" gradientUnits="userSpaceOnUse">
<stop stop-color="#FFFB06"/>
<stop offset="1" stop-color="#F68F00"/>
</linearGradient>
<radialGradient id="paint1_radial_302_2" cx="0" cy="0" r="1" gradientUnits="userSpaceOnUse" gradientTransform="translate(24.2492 9.37629) scale(4.47984 4.37566)">
<stop offset="0.177"/>
<stop offset="1" stop-color="white"/>
</radialGradient>
<linearGradient id="paint2_linear_302_2" x1="7.57956" y1="-21.5909" x2="150.482" y2="40.9432" gradientUnits="userSpaceOnUse">
<stop stop-color="#006C09"/>
<stop offset="1" stop-color="#00B410"/>
</linearGradient>
</defs>
</svg>
