<svg xmlns="http://www.w3.org/2000/svg" viewBox="0,0,256,256" width="32px"
     height="32px" fill-rule="nonzero">
    <g fill="#5e2900" fill-rule="nonzero" stroke="none" stroke-width="1" stroke-linecap="butt" stroke-linejoin="miter"
       stroke-miterlimit="10" stroke-dasharray="" stroke-dashoffset="0" font-family="none"
       font-size="none" style="mix-blend-mode: normal">
        <g transform="scale(5.12,5.12)">
            <path d="M37.03125,1.98828c-0.36328,-0.00781 -0.70703,0.18359 -0.89062,0.49609c0,0 -2.61719,4.51563 -9.14062,4.51563c-0.35937,-0.00391 -0.69531,0.18359 -0.87891,0.49609c-0.17969,0.3125 -0.17969,0.69531 0,1.00781c0.18359,0.3125 0.51953,0.5 0.87891,0.49609c7.47656,0 10.85938,-5.48437 10.85938,-5.48437c0.1875,-0.30469 0.19531,-0.6875 0.02734,-1.00391c-0.17187,-0.3125 -0.49609,-0.51562 -0.85547,-0.52344zM28,2c-3.91406,0 -6.44531,2.21484 -7.14062,2.86328c-0.65234,-0.29687 -2.03516,-0.86328 -3.85937,-0.86328c-3.44531,0 -5.70703,2.29297 -5.70703,2.29297c-0.26172,0.25 -0.36719,0.625 -0.27344,0.97266c0.08984,0.35156 0.36328,0.625 0.71484,0.71484c0.34766,0.09375 0.72266,-0.01172 0.97266,-0.27344c0,0 1.73828,-1.70703 4.29297,-1.70703c1.66797,0 3.55078,0.89453 3.55078,0.89453l0.64844,0.32422l0.50781,-0.51172c0,0 2.79297,-2.70703 6.29297,-2.70703c0.35938,0.00391 0.69531,-0.18359 0.87891,-0.49609c0.17969,-0.3125 0.17969,-0.69531 0,-1.00781c-0.18359,-0.3125 -0.51953,-0.5 -0.87891,-0.49609zM38,9.73438l-10,7.77734v7.48828h-12.0625l-1,-15h-6.875l-1,15h-5.0625v23h46v-30.48828zM33,23h2v4h-2zM37,23h2v4h-2zM41,23h2v4h-2zM7,30h4v2h-4zM13,30h4v2h-4zM19,30h4v2h-4zM25,30h4v2h-4zM33,30h2v4h-2zM37,30h2v4h-2zM41,30h2v4h-2zM33,37h2v4h-2zM37,37h2v4h-2zM41,37h2v4h-2z">

            </path>
        </g>
    </g>
</svg>