<svg xmlns="http://www.w3.org/2000/svg" xmlns:xlink="http://www.w3.org/1999/xlink" viewBox="0,0,256,256" width="32px" height="32px" fill-rule="nonzero"><g fill-opacity="0" fill="#dddddd" fill-rule="nonzero" stroke="none" stroke-width="1" stroke-linecap="butt" stroke-linejoin="miter" stroke-miterlimit="10" stroke-dasharray="" stroke-dashoffset="0" font-family="none" font-weight="none" font-size="none" text-anchor="none" style="mix-blend-mode: normal"><path d="M0,256v-256h256v256z" id="bgRectangle"></path></g><g fill="#16a34a" fill-rule="nonzero" stroke="none" stroke-width="1" stroke-linecap="butt" stroke-linejoin="miter" stroke-miterlimit="10" stroke-dasharray="" stroke-dashoffset="0" font-family="none" font-weight="none" font-size="none" text-anchor="none" style="mix-blend-mode: normal"><g transform="scale(5.12,5.12)"><path d="M6.4707,6c-1.71,0 -3.2807,0.53992 -4.4707,1.41992v28.58984c0.0893,0.05683 0.68559,0.16088 1.98828,-0.46094c-0.06185,6.85805 -1.18043,8.33865 -1.35937,8.52148c-0.396,0.158 -0.659,0.56091 -0.625,1.00391c0.039,0.522 0.47309,0.92578 0.99609,0.92578h7c0.552,0 1,-0.447 1,-1c0,-0.449 -0.29513,-0.82808 -0.70312,-0.95508c-0.203,-0.226 -1.29687,-1.77592 -1.29687,-9.04492c0,-0.10005 -0.02935,-0.19016 -0.05664,-0.28125c0.49276,-0.23004 1.01161,-0.41754 2.05664,0.28125c0.68,0.45 1.35,0.71055 2,0.81055v9.18945c0,0.55 0.45,1 1,1h23.76953h2.23047h3.69141c1.784,0 3.23242,-1.455 3.23242,-3.25c0,-0.884 -0.35287,-1.68353 -0.92187,-2.26953c1.149,-0.309 1.99805,-1.35247 1.99805,-2.60547c0,-1.496 -1.20441,-2.70703 -2.69141,-2.70703c-0.245,0 -0.47908,0.04252 -0.70508,0.10352c-0.415,-1.314 -1.62241,-2.27148 -3.06641,-2.27148c-0.18384,0 -0.36199,0.01708 -0.53711,0.04688v-6.4668l1.33984,1.16992c0.19,0.17 0.43016,0.25 0.66016,0.25c0.28,0 0.56,-0.11984 0.75,-0.33984c0.37,-0.42 0.32016,-1.05016 -0.08984,-1.41016l-5.66016,-4.93945v-7.31055h-6v2.08008l-4.33984,-3.7793c-0.38,-0.33 -0.94031,-0.33 -1.32031,0l-7.30078,6.35938c-0.12,-1.56 -0.88977,-3.5993 -2.00977,-4.5293c0.06,-0.26 -0.0293,-0.85086 -0.0293,-1.13086c0,-2.15 -1.88016,-3.5907 -4.41016,-3.7207c-1.08,-1.93 -3.40914,-3.2793 -6.11914,-3.2793zM27,14.38086l12.00977,10.46875c-0.01,0.05 -0.00977,0.10039 -0.00977,0.15039v9.27148c-0.25554,0.33459 -0.45584,0.71338 -0.56836,1.13281c-0.372,-0.15 -0.77617,-0.23633 -1.20117,-0.23633c-1.784,0 -3.23047,1.455 -3.23047,3.25c0,1.309 0.77381,2.42936 1.88281,2.94336c-0.497,0.491 -0.80664,1.17464 -0.80664,1.93164c0,0.24672 0.04406,0.47992 0.10547,0.70703h-4.18164v-12h-8v12h-8v-19c0,-0.05 0.00023,-0.10039 -0.00977,-0.15039z"></path></g></g></svg>