<svg xmlns="http://www.w3.org/2000/svg" viewBox="0,0,256,256" width="32px"
     height="32px" fill-rule="nonzero">
    <g fill="#737373" fill-rule="nonzero" stroke="none" stroke-width="1" stroke-linecap="butt" stroke-linejoin="miter"
       stroke-miterlimit="10" stroke-dasharray="" stroke-dashoffset="0" font-family="none"
       font-size="none" style="mix-blend-mode: normal">
        <g transform="scale(0.5,0.5)">
            <path d="M80,8c-4.41828,0 -8,3.58172 -8,8v80c0,4.41828 3.58172,8 8,8h8v16h-24c-4.41828,0 -8,3.58172 -8,8v328h-40c-4.41828,0 -8,3.58172 -8,8v32c0,4.41828 3.58172,8 8,8h480c4.41828,0 8,-3.58172 8,-8v-32c0,-4.41828 -3.58172,-8 -8,-8h-40v-120c-0.00033,-3.03063 -1.71085,-5.80162 -4.41992,-7.16016l-123.58008,-61.77929v-139.06055c0,-4.41828 -3.58172,-8 -8,-8h-24.00977v-16h8.00977c4.41828,0 8,-3.58172 8,-8v-80c0,-4.41828 -3.58172,-8 -8,-8zM88,24h208v64h-208zM104,104h175.99023v16h-175.99023zM72,136h240v16h-240zM72,168h48v72h-48zM136,168h48v72h-48zM200,168h48v72h-48zM264,168h48v72h-48zM72,256h48v72h-48zM136,256h48v72h-48zM200,256h48v72h-48zM264,256h48v72h-48zM328,284.93945l112,56v115.06055h-112zM72,344h240v112h-56v-88c0,-4.41828 -3.58172,-8 -8,-8h-112c-4.41828,0 -8,3.58172 -8,8v88h-56zM352,360c-4.41828,0 -8,3.58172 -8,8v64c0,4.41828 3.58172,8 8,8h64c4.41828,0 8,-3.58172 8,-8v-64c0,-4.41828 -3.58172,-8 -8,-8zM144,376h40v80h-40zM200,376h40v80h-40zM360,376h48v48h-48zM24,472h464v16h-464z">

            </path>
        </g>
    </g>
</svg>