<svg xmlns="http://www.w3.org/2000/svg" viewBox="0,0,256,256" width="48px"
     height="48px" fill-rule="nonzero">
    <g fill="#5c7cfa" fill-rule="nonzero" stroke="none" stroke-width="1" stroke-linecap="butt" stroke-linejoin="miter"
       stroke-miterlimit="10" stroke-dasharray="" stroke-dashoffset="0" font-family="none"
       font-size="none" style="mix-blend-mode: normal">
        <g transform="scale(0.5,0.5)">
            <path d="M95.02246,391.4575c-2.41072,4.6839 -8.16205,6.52668 -12.84596,4.11595c-4.6839,-2.41072 -6.52668,-8.16205 -4.11595,-12.84596v-0.001c2.411,-4.6839 8.16255,-6.52645 12.84646,-4.11545c4.6839,2.411 6.52645,8.16255 4.11545,12.84645zM115.22266,394.2661c-5.01585,1.61178 -7.77636,6.98358 -6.16674,12.00012c1.60962,5.01654 6.98023,7.77937 11.99746,6.17192c5.01723,-1.60745 7.78238,-6.97687 6.17709,-11.9948c-0.77266,-2.41185 -2.47205,-4.41782 -4.72412,-5.57637c-2.25207,-1.15854 -4.87221,-1.37469 -7.28369,-0.60087zM458.53223,316.44579v56.73877c-0.00002,3.02491 -1.70613,5.79114 -4.40918,7.14892l-196.71778,98.81494c-2.28517,1.13346 -4.97141,1.12115 -7.24609,-0.0332l-105.40527,-54.15039c-2.54384,-1.30499 -4.19785,-3.86838 -4.33858,-6.72396c-0.14073,-2.85558 1.25322,-5.56918 3.65642,-7.11797c2.4032,-1.54879 5.45028,-1.69729 7.99269,-0.38952l93.75,48.162v-38.751l-176.34668,-90.59508v43.63526c0,4.41828 -3.58172,8 -8,8c-4.41828,0 -8,-3.58172 -8,-8v-56.73877c0.01192,-3.12927 1.83679,-5.96789 4.67871,-7.27784l157.05176,-71.92871c2.58847,-1.21665 5.62956,-0.95881 7.97625,0.67626c2.34669,1.63508 3.64192,4.3986 3.39716,7.24825c-0.24476,2.84965 -1.99227,5.35184 -4.5834,6.56279l-6.25683,2.9331l40.33441,20.72144l38.69787,-19.88062l-6.15045,-2.85986c-2.59377,-1.20373 -4.34781,-3.70037 -4.60081,-6.54864c-0.253,-2.84826 1.03352,-5.61498 3.37451,-7.25705c2.34099,-1.64206 5.38043,-1.90975 7.9724,-0.70213c28.9685,13.47022 0.19414,0.4918 158.27514,70.9375c2.95587,1.26355 4.8799,4.16093 4.89775,7.37549zM302.10248,382.05223l-45.91028,-23.68591l-47.80872,24.56091l45.472,23.36035zM190.87714,373.93358l47.84586,-24.57984l-45.72021,-23.58789l-47.94287,24.62989zM273.57208,284.3745l45.81757,23.5382l42.89282,-22.03527l-49.07019,-21.86743zM210.48779,316.78319l45.72028,23.58789l45.67535,-23.46485l-45.81756,-23.53808zM366.1084,349.90086l-46.71875,-24.001l-45.7124,23.48388l46.10632,23.78687zM431.84863,316.8784l-50.81714,-22.64587l-44.13549,22.6737l46.9154,24.10206zM197.37677,263.21764l-48.1366,21.96692l43.77851,22.58605l45.541,-23.396zM79.80371,316.87157l47.74994,24.53076l47.98,-24.649l-44.81055,-23.11853zM442.53223,368.25047v-38.83347l-180.71778,90.77787v38.83356zM256,97.09863c-7.03607,-0.0002 -13.37943,4.23808 -16.07216,10.7385c-2.69272,6.50042 -1.20452,13.98283 3.77066,18.95816c4.97518,4.97532 12.45755,6.46374 18.95805,3.7712c6.5005,-2.69254 10.73895,-9.03579 10.73895,-16.07186c-0.01073,-9.60291 -7.7926,-17.385 -17.39551,-17.396zM329.6416,148.67627c-10.41015,30.502 -66.00293,93.72217 -68.36426,96.39844c-1.54866,1.7545 -3.78782,2.74305 -6.12774,2.7053c-2.33992,-0.03776 -4.54601,-1.09803 -6.03726,-2.90159c-2.42187,-2.93018 -59.42578,-72.10987 -69.57617,-102.47022c-7.14453,-21.37158 -7.335,-53.40332 8.34571,-76.78711c13.53023,-20.17773 36.02632,-31.45459 66.86226,-33.51709c16.32813,-1.09619 49.24414,6.33643 68.09961,30.91748c16.54687,21.56983 18.83398,50.38819 6.79785,85.65479zM289.39551,114.49463c-0.00027,-18.44377 -14.95206,-33.39521 -33.39583,-33.39503c-18.44377,0.00018 -33.39528,14.9519 -33.39519,33.39567c0.00009,18.44377 14.95174,33.39535 33.39551,33.39535c18.43527,-0.0211 33.37467,-14.96072 33.39551,-33.39599z">

            </path>
        </g>
    </g>
</svg>