<svg xmlns="http://www.w3.org/2000/svg" viewBox="0,0,255.98959,255.98959" width="16px" height="16px"
     fill-rule="evenodd">
    <g fill="#9d5600" fill-rule="evenodd" stroke="none" stroke-width="1" stroke-linecap="butt" stroke-linejoin="miter"
       stroke-miterlimit="10" stroke-dasharray="" stroke-dashoffset="0" font-family="none"
       font-size="none" style="mix-blend-mode: normal">
        <g transform="scale(10.66667,10.66667)">
            <path d="M12,1.25c-2.346,0 -4.25,1.904 -4.25,4.25c0,2.738 1.92906,5.09903 3.03906,6.20703c0.003,0.002 0.00481,0.00677 0.00781,0.00977c0.671,0.649 1.73625,0.64705 2.40625,-0.00195c0.002,-0.003 0.00581,-0.00481 0.00781,-0.00781c1.111,-1.107 3.03906,-3.46903 3.03906,-6.20703c0,-2.346 -1.904,-4.25 -4.25,-4.25zM12,2.75c1.518,0 2.75,1.232 2.75,2.75c0,2.279 -1.66675,4.21367 -2.59375,5.13867c-0.087,0.083 -0.22255,0.08391 -0.31055,0.00391c-0.931,-0.929 -2.5957,-2.86358 -2.5957,-5.14258c0,-1.518 1.232,-2.75 2.75,-2.75zM12,4.5c-0.55228,0 -1,0.44772 -1,1c0,0.55228 0.44772,1 1,1c0.55228,0 1,-0.44772 1,-1c0,-0.55228 -0.44772,-1 -1,-1zM2,12.75c-0.249,0 -0.48109,0.12213 -0.62109,0.32813c-0.139,0.206 -0.16817,0.46822 -0.07617,0.69922l1,2.51367c0.063,0.158 0.17722,0.28805 0.32422,0.37305l3,1.72266c0.231,0.133 0.51509,0.133 0.74609,0l1.87695,-1.07812v1.28711c0,0.22 0.09567,0.43027 0.26367,0.57227l4,3.40234c0.199,0.17 0.4727,0.22458 0.7207,0.14258c0.249,-0.081 0.43709,-0.28602 0.49609,-0.54102l0.92578,-3.94727l2.34375,-1.3457l2.62695,1.50781c0.181,0.104 0.39766,0.12745 0.59766,0.06445c0.199,-0.063 0.36412,-0.20553 0.45313,-0.39453l2,-4.23633c0.11,-0.232 0.09403,-0.5037 -0.04297,-0.7207c-0.138,-0.217 -0.37777,-0.34961 -0.63477,-0.34961zM3.10547,14.25h17.71094l-1.14648,2.43164l-2.29687,-1.31836c-0.231,-0.133 -0.51509,-0.133 -0.74609,0l-3,1.72266c-0.18,0.103 -0.31042,0.27651 -0.35742,0.47852l-0.71875,3.06836l-2.80078,-2.38477v-2.23437c0,-0.267 -0.14205,-0.51444 -0.37305,-0.64844c-0.232,-0.134 -0.518,-0.13595 -0.75,-0.00195l-2.62695,1.50781l-2.40039,-1.37695z"></path>
        </g>
    </g>
</svg>