<svg xmlns="http://www.w3.org/2000/svg" xmlns:xlink="http://www.w3.org/1999/xlink" viewBox="0,0,256,256" width="30px" height="30px" fill-rule="nonzero"><g fill="#8a90ff" fill-rule="nonzero" stroke="none" stroke-width="1" stroke-linecap="butt" stroke-linejoin="miter" stroke-miterlimit="10" stroke-dasharray="" stroke-dashoffset="0" font-family="none" font-weight="none" font-size="none" text-anchor="none" style="mix-blend-mode: normal"><g transform="scale(0.5,0.5)"><path d="M374.96484,49.77539c-53.71446,0.00043 -97.25837,43.54479 -97.25823,97.25926c0.00014,53.71446 43.54428,97.2586 97.25874,97.25874c53.71446,0.00014 97.25883,-43.54377 97.25926,-97.25823c-0.06075,-53.68991 -43.56986,-97.19902 -97.25977,-97.25977zM429.61523,107.11133c2.93778,-0.12174 5.63851,1.60539 6.76034,4.32327c1.12183,2.71788 0.4256,5.84713 -1.74276,7.83298h-0.00195l-71.90039,65.86133c-2.84459,2.60529 -7.26074,2.41837 -9.875,-0.41797l-37.9707,-41.17383c-2.57795,-2.8473 -2.38022,-7.24004 0.44311,-9.84422c2.82333,-2.60418 7.21772,-2.44709 9.8479,0.35203l33.24219,36.04688l66.75976,-61.14844c1.21696,-1.11467 2.78862,-1.76353 4.4375,-1.83203zM40,144v318h318v-204.97461c-53,-8.125 -94.37109,-54.27906 -94.37109,-109.91406c0,-1.067 0.095,-2.11133 0.125,-3.11133h-5.75391v75.25586c0.0313,2.25689 -1.03941,4.38738 -2.86914,5.70898c-1.15351,0.8384 -2.54274,1.29031 -3.96875,1.29102c-0.78708,-0.00039 -1.56837,-0.13446 -2.31055,-0.39648l-49.85937,-17.5l-49.84375,17.5c-2.12282,0.75877 -4.48313,0.42383 -6.31104,-0.89559c-1.82791,-1.31942 -2.88909,-3.45416 -2.8374,-5.70793v-75.25586zM154,144v65.38086l42.7207,-15.04492c1.44678,-0.52442 3.03174,-0.52442 4.47852,0l42.80078,15.04492v-65.38086zM119.30078,293h104.38477c3.86599,0 7,3.13401 7,7c0,3.86599 -3.13401,7 -7,7h-104.38477c-3.86599,0 -7,-3.13401 -7,-7c0,-3.86599 3.13401,-7 7,-7zM119.30078,348h159.32617c3.86599,0 7,3.13401 7,7c0,3.86599 -3.13401,7 -7,7h-0.0039h-159.32227c-3.86599,0 -7,-3.13401 -7,-7c0,-3.86599 3.13401,-7 7,-7z"></path></g></g></svg>