<svg xmlns="http://www.w3.org/2000/svg" viewBox="0,0,255.98959,255.98959" width="26px" height="26px"
     fill-rule="nonzero">
    <g fill="#006a01" fill-rule="nonzero" stroke="none" stroke-width="1" stroke-linecap="butt" stroke-linejoin="miter"
       stroke-miterlimit="10" stroke-dasharray="" stroke-dashoffset="0" font-family="none" font-size="none"
       style="mix-blend-mode: normal">
        <g transform="scale(5.12,5.12)">
            <path d="M29,9c-5.32422,0 -9.80859,3.28125 -11.8125,7.875c-0.96875,-0.50781 -2.01953,-0.875 -3.1875,-0.875c-3.31641,0 -6.03516,2.35938 -6.75,5.46875c-4.16797,1.20703 -7.25,4.98438 -7.25,9.53125c0,5.51172 4.48828,10 10,10h31c4.95703,0 9,-4.04297 9,-9c0,-4.63672 -3.57812,-8.33594 -8.09375,-8.8125c0.03906,-0.39062 0.09375,-0.77734 0.09375,-1.1875c0,-7.16797 -5.83203,-13 -13,-13zM29,11c6.08594,0 11,4.91406 11,11c0,0.61719 -0.05469,1.23047 -0.15625,1.84375c-0.04687,0.29297 0.03906,0.58594 0.23047,0.80859c0.19531,0.22656 0.47656,0.35156 0.76953,0.34766c0.13672,-0.00391 0.18359,0 0.15625,0c3.87891,0 7,3.12109 7,7c0,3.87891 -3.12109,7 -7,7h-31c-4.42969,0 -8,-3.57031 -8,-8c0,-3.83594 2.69531,-7.02344 6.28125,-7.8125c0.41406,-0.08984 0.72656,-0.42578 0.78125,-0.84375c0.32031,-2.45312 2.38672,-4.34375 4.9375,-4.34375c1.13672,0 2.15625,0.39063 3,1.03125c0.26172,0.19922 0.60156,0.25781 0.91016,0.15625c0.3125,-0.09766 0.55469,-0.34375 0.65234,-0.65625c1.45313,-4.375 5.56641,-7.53125 10.4375,-7.53125zM33.25,20.3125l-10.28125,11.21875l-5.25,-5.25l-1.4375,1.4375l6,6l0.75,0.71875l0.71875,-0.75l11,-12z"></path>
        </g>
    </g>
</svg>