<svg xmlns="http://www.w3.org/2000/svg" viewBox="0,0,256,256" width="30px"
     height="30px" fill-rule="nonzero">
    <g fill="none" fill-rule="nonzero" stroke="none" stroke-width="1" stroke-linecap="butt" stroke-linejoin="miter"
       stroke-miterlimit="10" stroke-dasharray="" stroke-dashoffset="0" font-family="none"
       font-size="none" style="mix-blend-mode: normal">
        <g transform="scale(0.53327,0.53327)">
            <path d="M422.514,208.207c1.61,10.6 -1.92,21.34 -9.5,28.92l-225.07,225.06c-13.18,13.18 -34.54,13.18 -47.72,0l-122.29,-122.29c-13.18,-13.17 -13.18,-34.54 0,-47.72l225.06,-225.06c7.59,-7.59 18.32,-11.11 28.92,-9.51l106.2,16.09c14.62,2.22 26.09,13.69 28.31,28.31z"
                  fill="#ffeeb8">

            </path>
            <path d="M194.393,186.718c-65.346,65.346 -65.346,171.292 0,236.638c8.942,8.942 8.942,23.44 0,32.382l-6.449,6.449c-13.18,13.18 -34.54,13.18 -47.72,0l-122.29,-122.29c-13.18,-13.17 -13.18,-34.54 0,-47.72l225.06,-225.06c7.59,-7.59 18.32,-11.11 28.92,-9.51c18.552,2.812 26.049,25.541 12.76,38.83z"
                  fill="#d7ffd8">

            </path>
            <path d="M132.115,382.927c-5.056,5.056 -1.405,13.657 5.657,13.657c2.048,0 4.095,-0.781 5.657,-2.343l21.465,-21.465c9.534,-9.534 9.494,-24.936 0,-34.429c-9.515,-9.514 -24.913,-9.516 -34.429,0l-9.908,9.907c-3.275,3.275 -8.553,3.248 -11.802,0c-3.261,-3.261 -3.263,-8.539 0.001,-11.802l21.464,-21.465c3.124,-3.125 3.124,-8.189 -0.001,-11.314c-3.123,-3.124 -8.188,-3.124 -11.313,0l-21.463,21.464c-9.516,9.516 -9.517,24.913 -0.001,34.43c9.513,9.513 24.912,9.517 34.429,0l9.908,-9.907c3.261,-3.261 8.538,-3.262 11.802,0c3.249,3.249 3.273,8.528 -0.001,11.802z"
                  fill="#2f8240">

            </path>
            <path d="M262.204,275.465l26.099,-26.099c3.124,-3.124 3.124,-8.189 0,-11.313c-3.125,-3.124 -8.189,-3.124 -11.314,0l-20.441,20.442l-40.574,-40.575c-3.124,-3.124 -8.188,-3.125 -11.314,0c-3.124,3.124 -3.124,8.189 0,11.313l46.231,46.231c3.123,3.125 8.188,3.126 11.313,0.001z"
                  fill="#2f8240">

            </path>
            <path d="M224.791,301.564c3.125,3.124 8.189,3.124 11.314,0c3.124,-3.124 3.124,-8.189 0,-11.313l-29.678,-29.678c-12.165,-12.165 -32.126,-11.998 -44.497,0.373c-12.369,12.371 -12.537,32.332 -0.373,44.496l29.678,29.678c3.126,3.125 8.189,3.124 11.314,0c3.124,-3.124 3.124,-8.189 0,-11.313l-7.552,-7.552l22.242,-22.241zM183.684,304.939l-10.812,-10.812c-5.927,-5.926 -5.759,-15.737 0.373,-21.869c6.131,-6.131 15.94,-6.3 21.868,-0.373l10.812,10.812z"
                  fill="#2f8240">

            </path>
            <path d="M257.601,164.977c-3.124,3.124 -3.124,8.189 0,11.313l46.231,46.231c3.126,3.125 8.189,3.124 11.314,0l32.81,-32.81c3.124,-3.124 3.124,-8.189 0,-11.313c-3.125,-3.124 -8.189,-3.124 -11.314,0l-27.152,27.153l-11.802,-11.802l14.477,-14.477c3.124,-3.124 3.124,-8.189 0,-11.313c-3.125,-3.124 -8.189,-3.124 -11.314,0l-14.476,14.476l-11.802,-11.802l27.153,-27.153c3.124,-3.124 3.124,-8.189 0,-11.313c-3.125,-3.124 -8.189,-3.124 -11.314,0z"
                  fill="#2f8240">

            </path>
            <path d="M447.213,119.855c-0.422,0.446 -0.851,0.888 -1.286,1.325c-3.121,3.127 -3.116,8.193 0.011,11.314c3.118,3.112 8.184,3.125 11.313,-0.011c0.541,-0.542 1.072,-1.089 1.595,-1.642c3.033,-3.212 2.889,-8.276 -0.324,-11.309c-3.212,-3.034 -8.276,-2.89 -11.309,0.323z"
                  fill="#2f8240">

            </path>
            <path d="M457.246,22.746c-30.326,-30.325 -79.413,-30.331 -109.743,0c-30.327,30.327 -30.329,79.412 0,109.742c3.126,3.125 8.189,3.124 11.314,0c3.124,-3.124 3.124,-8.189 0,-11.313c-11.794,-11.794 -18.419,-27.73 -18.007,-45.035l36.105,5.47c11.218,1.7 19.897,10.38 21.597,21.598l16.091,106.2c1.221,8.054 -1.489,16.301 -7.25,22.062l-225.064,225.065c-10.04,10.037 -26.372,10.037 -36.41,0l-122.29,-122.29c-10.038,-10.038 -10.038,-26.371 0,-36.409l225.067,-225.067c5.76,-5.759 14.009,-8.47 22.062,-7.25l10.73,1.625c4.366,0.66 8.446,-2.344 9.108,-6.711c0.661,-4.369 -2.344,-8.446 -6.712,-9.108l-10.73,-1.625c-13.057,-1.979 -26.432,2.415 -35.772,11.756l-225.067,225.066c-16.275,16.277 -16.275,42.76 0,59.036l122.291,122.291c16.275,16.275 42.759,16.276 59.037,0l225.065,-225.066c9.34,-9.34 13.734,-22.713 11.756,-35.772l-16.091,-106.199c-2.756,-18.19 -16.83,-32.265 -35.021,-35.021l-36.077,-5.466c7.311,-25.132 30.623,-44.307 59.139,-44.307c39.123,0 68.29,35.975 60.292,74.262c-0.903,4.325 1.87,8.563 6.195,9.467c4.329,0.904 8.563,-1.87 9.467,-6.195c5.38,-25.755 -2.501,-52.224 -21.082,-70.806z"
                  fill="#2f8240">

            </path>
        </g>
    </g>
</svg>