<svg xmlns="http://www.w3.org/2000/svg" viewBox="0,0,256,256" width="48px"
     height="48px" fill-rule="nonzero">
    <g fill="#16a34a" fill-rule="nonzero" stroke="none" stroke-width="1" stroke-linecap="butt" stroke-linejoin="miter"
       stroke-miterlimit="10" stroke-dasharray="" stroke-dashoffset="0" font-family="none"
       font-size="none" style="mix-blend-mode: normal">
        <g transform="scale(4,4)">
            <path d="M51.306,39.261c1.862,2.056 3.435,5.049 4.645,10.202c0.379,1.615 -0.623,3.232 -2.238,3.611c-0.633,0.149 -3.293,0.171 -3.663,-2.519c-0.467,-3.827 -1.718,-6.37 -1.783,-6.51c-2.996,3.054 -7.162,4.955 -11.767,4.955c-9.115,0 -17.178,-3.551 -22.12,-9.743c-3.611,-4.525 -7.295,-12.656 -4.33,-25.7c0.154,-0.678 0.65,-1.228 1.31,-1.451c0.657,-0.222 1.387,-0.087 1.921,0.358c5.992,4.994 9.651,4.622 15.717,4.008c2.177,-0.222 4.646,-0.472 7.502,-0.472c9.098,0 16.5,7.402 16.5,16.5c0,0.58 -0.037,1.151 -0.097,1.714c-1.871,-1.284 -4.389,-2.596 -8.43,-3.32c-3.613,-0.649 -7.117,-0.61 -10.419,-0.891c-1.645,-0.147 -3.241,-0.386 -4.679,-0.904c-1.433,-0.519 -2.641,-1.396 -3.526,-2.627c-0.329,-0.461 -0.895,-0.547 -1.319,-0.308c-0.482,0.271 -0.652,0.882 -0.381,1.363c0.943,1.674 2.508,3.057 4.23,3.866c1.724,0.82 3.52,1.25 5.262,1.582c3.485,0.632 6.865,0.939 9.945,1.82c3.084,0.849 5.762,2.307 7.72,4.466z">

            </path>
        </g>
    </g>
</svg>