<svg xmlns="http://www.w3.org/2000/svg" viewBox="0,0,255.98959,255.98959" width="30px" height="30px"
     fill-rule="nonzero">
    <g fill="#00a10b" fill-rule="nonzero" stroke="none" stroke-width="1" stroke-linecap="butt" stroke-linejoin="miter"
       stroke-miterlimit="10" stroke-dasharray="" stroke-dashoffset="0" font-family="none"
       font-size="none" style="mix-blend-mode: normal">
        <g transform="scale(5.12,5.12)">
            <path d="M12.99219,3c-0.53772,0.02002 -0.96321,0.46191 -0.96289,1v22h-2c-2.19545,0 -4,1.80455 -4,4v16c-0.0051,0.36064 0.18438,0.69608 0.49587,0.87789c0.3115,0.18181 0.69676,0.18181 1.00825,0c0.3115,-0.18181 0.50097,-0.51725 0.49587,-0.87789v-16c0,-1.10455 0.89545,-2 2,-2h2v2c-1.105,0 -2,0.895 -2,2c0,1.105 0.895,2 2,2h26c1.105,0 2,-0.895 2,-2c0,-1.105 -0.895,-2 -2,-2v-2h2c1.10455,0 2,0.89545 2,2v16c-0.0051,0.36064 0.18438,0.69608 0.49587,0.87789c0.3115,0.18181 0.69676,0.18181 1.00825,0c0.3115,-0.18181 0.50097,-0.51725 0.49587,-0.87789v-16c0,-2.19545 -1.80455,-4 -4,-4h-2v-22c-0.00001,-0.34659 -0.17947,-0.66846 -0.47429,-0.85069c-0.29482,-0.18222 -0.66297,-0.19881 -0.97298,-0.04385l-1.55273,0.77734l-1.55273,-0.77734c-0.28156,-0.14078 -0.61297,-0.14078 -0.89453,0l-1.55273,0.77734l-1.55273,-0.77734c-0.28156,-0.14078 -0.61297,-0.14078 -0.89453,0l-1.55273,0.77734l-1.55273,-0.77734c-0.28156,-0.14078 -0.61297,-0.14078 -0.89453,0l-1.55273,0.77734l-1.55273,-0.77734c-0.28156,-0.14078 -0.61297,-0.14078 -0.89453,0l-1.55273,0.77734l-1.55273,-0.77734c-0.28156,-0.14078 -0.61297,-0.14078 -0.89453,0l-1.55273,0.77734l-1.55274,-0.77734c-0.15005,-0.07525 -0.31662,-0.11152 -0.48437,-0.10547zM17.0293,5.11719l1.55273,0.77734c0.28156,0.14078 0.61297,0.14078 0.89453,0l1.55273,-0.77734l1.55273,0.77734c0.28156,0.14078 0.61297,0.14078 0.89453,0l1.55273,-0.77734l1.55273,0.77734c0.28156,0.14078 0.61297,0.14078 0.89453,0l1.55273,-0.77734l1.55273,0.77734c0.28156,0.14078 0.61297,0.14078 0.89453,0l1.55273,-0.77734l1.55273,0.77734c0.28156,0.14078 0.61297,0.14078 0.89453,0l0.55273,-0.27734v21.21484c-0.01785,0.10799 -0.01785,0.21818 0,0.32617v4.8418h-22v-4.83203c0.01785,-0.10799 0.01785,-0.21818 0,-0.32617v-21.22461l0.55273,0.27734c0.28156,0.14078 0.61297,0.14078 0.89453,0zM31.98047,13.99023c-0.2598,0.00774 -0.50638,0.11632 -0.6875,0.30274l-8.29297,8.29297l-4.29297,-4.29297c-0.25082,-0.26124 -0.62327,-0.36648 -0.97371,-0.27512c-0.35044,0.09136 -0.62411,0.36503 -0.71547,0.71547c-0.09136,0.35044 0.01388,0.72289 0.27512,0.97371l5,5c0.39053,0.39037 1.02353,0.39037 1.41406,0l9,-9c0.29576,-0.28749 0.38469,-0.72707 0.22393,-1.10691c-0.16075,-0.37985 -0.53821,-0.62204 -0.9505,-0.60988zM12.0293,37c-0.552,0 -1,0.448 -1,1v2c0,0.552 0.448,1 1,1h6c0.553,0 1,-0.448 1,-1v-2c0,-0.552 -0.448,-1 -1,-1zM22.0293,37c-0.552,0 -1,0.448 -1,1v2c0,0.552 0.448,1 1,1h6c0.553,0 1,-0.448 1,-1v-2c0,-0.552 -0.448,-1 -1,-1zM32.0293,37c-0.552,0 -1,0.448 -1,1v2c0,0.552 0.448,1 1,1h6c0.553,0 1,-0.448 1,-1v-2c0,-0.552 -0.448,-1 -1,-1zM12.0293,43c-0.552,0 -1,0.448 -1,1v2c0,0.552 0.448,1 1,1h6c0.553,0 1,-0.448 1,-1v-2c0,-0.552 -0.448,-1 -1,-1zM22.0293,43c-0.552,0 -1,0.448 -1,1v2c0,0.552 0.448,1 1,1h6c0.553,0 1,-0.448 1,-1v-2c0,-0.552 -0.448,-1 -1,-1zM32.0293,43c-0.552,0 -1,0.448 -1,1v2c0,0.552 0.448,1 1,1h6c0.553,0 1,-0.448 1,-1v-2c0,-0.552 -0.448,-1 -1,-1z"></path>
        </g>
    </g>
</svg>