<svg xmlns="http://www.w3.org/2000/svg" xmlns:xlink="http://www.w3.org/1999/xlink" viewBox="0,0,256,256" width="30px" height="30px" fill-rule="nonzero"><g fill="#055600" fill-rule="nonzero" stroke="none" stroke-width="1" stroke-linecap="butt" stroke-linejoin="miter" stroke-miterlimit="10" stroke-dasharray="" stroke-dashoffset="0" font-family="none" font-weight="none" font-size="none" text-anchor="none" style="mix-blend-mode: normal"><g transform="scale(9.84615,9.84615)"><path d="M2,2c-1.09375,0 -2,0.90625 -2,2v17c0,1.09375 0.90625,2 2,2h22c1.09375,0 2,-0.90625 2,-2v-17c0,-1.09375 -0.90625,-2 -2,-2zM2,4h22v3h-6.78125c-0.10156,-0.02734 -0.20703,-0.03906 -0.3125,-0.03125c-0.03125,0.00781 -0.0625,0.01953 -0.09375,0.03125h-11.59375c-0.10156,-0.02734 -0.20703,-0.03906 -0.3125,-0.03125c-0.03125,0.00781 -0.0625,0.01953 -0.09375,0.03125h-2.8125zM2,9h2v2h-2zM6,9h10v2h-10zM18,9h6v2h-6zM2,13h2v2h-2zM6,13h10v2h-10zM18,13h6v2h-6zM2,17h22v4h-22zM16.71875,18c-0.55078,0.07813 -0.9375,0.58984 -0.85937,1.14063c0.07813,0.55078 0.58984,0.9375 1.14063,0.85938h5c0.35938,0.00391 0.69531,-0.18359 0.87891,-0.49609c0.17969,-0.3125 0.17969,-0.69531 0,-1.00781c-0.18359,-0.3125 -0.51953,-0.5 -0.87891,-0.49609h-5c-0.03125,0 -0.0625,0 -0.09375,0c-0.03125,0 -0.0625,0 -0.09375,0c-0.03125,0 -0.0625,0 -0.09375,0z"></path></g></g></svg>