<svg xmlns="http://www.w3.org/2000/svg" viewBox="0,0,255.98959,255.98959" width="26px" height="26px"
     fill-rule="nonzero">
    <g fill="#ffffff" fill-rule="nonzero" stroke="none" stroke-width="1" stroke-linecap="butt" stroke-linejoin="miter"
       stroke-miterlimit="10" stroke-dasharray="" stroke-dashoffset="0" font-family="none"
       font-size="none" style="mix-blend-mode: normal">
        <g transform="scale(5.12,5.12)">
            <path d="M5,44.99609c-0.01562,0 -0.02734,0 -0.04297,0c-0.53906,-0.02344 -0.96484,-0.46875 -0.95703,-1.00781c0.00391,-0.24609 0.57813,-24.30859 24,-24.97266v-7.01562c0,-0.38672 0.22266,-0.73828 0.57031,-0.90234c0.34375,-0.16797 0.76172,-0.11719 1.05859,0.125l16,13c0.23438,0.19141 0.37109,0.47656 0.37109,0.77734c0,0.30078 -0.13672,0.58594 -0.36719,0.77734l-16,13c-0.30078,0.24219 -0.71484,0.28906 -1.0625,0.125c-0.34766,-0.16406 -0.57031,-0.51562 -0.57031,-0.90234v-6.99219c-20.83984,0.37891 -21.96484,12.53516 -22.00391,13.05859c-0.03516,0.52734 -0.47266,0.92969 -0.99609,0.92969z"></path>
        </g>
    </g>
</svg>