<svg xmlns="http://www.w3.org/2000/svg" xmlns:xlink="http://www.w3.org/1999/xlink" viewBox="0,0,256,256" width="30px" height="30px" fill-rule="nonzero"><g fill="#a26c00" fill-rule="nonzero" stroke="none" stroke-width="1" stroke-linecap="butt" stroke-linejoin="miter" stroke-miterlimit="10" stroke-dasharray="" stroke-dashoffset="0" font-family="none" font-weight="none" font-size="none" text-anchor="none" style="mix-blend-mode: normal"><g transform="scale(5.12,5.12)"><path d="M6,0c-3.30859,0 -6,2.69141 -6,6c0,3.30859 2.69141,6 6,6c1.29688,0 2.48828,-0.42187 3.46875,-1.125l7.78125,7.8125c-1.41016,1.72266 -2.25,3.91797 -2.25,6.3125c0,1.98047 0.59766,3.82031 1.59375,5.375l-6.5625,5.1875c-1.06641,-0.96875 -2.48047,-1.5625 -4.03125,-1.5625c-3.30859,0 -6,2.69141 -6,6c0,3.30859 2.69141,6 6,6c3.30859,0 6,-2.69141 6,-6c0,-1.03516 -0.25781,-1.99219 -0.71875,-2.84375l6.5625,-5.21875c1.82031,1.875 4.34375,3.0625 7.15625,3.0625c1.32031,0 2.56641,-0.25391 3.71875,-0.71875l2.625,4.96875c-1.42187,1.09766 -2.34375,2.81641 -2.34375,4.75c0,3.30859 2.69141,6 6,6c3.30859,0 6,-2.69141 6,-6c0,-3.30859 -2.69141,-6 -6,-6c-0.65625,0 -1.28516,0.11719 -1.875,0.3125l-2.625,-4.96875c1.88672,-1.24609 3.32813,-3.11328 4.03125,-5.3125l3.46875,0.71875c-0.00391,0.08203 0,0.16797 0,0.25c0,3.30859 2.69141,6 6,6c3.30859,0 6,-2.69141 6,-6c0,-3.30859 -2.69141,-6 -6,-6c-2.53906,0 -4.71875,1.57813 -5.59375,3.8125l-3.46875,-0.75c0.03516,-0.34766 0.0625,-0.70703 0.0625,-1.0625c0,-3.94922 -2.32422,-7.34375 -5.65625,-8.96875l1.53125,-4.125c0.35938,0.06641 0.74609,0.09375 1.125,0.09375c3.30859,0 6,-2.69141 6,-6c0,-3.30859 -2.69141,-6 -6,-6c-3.30859,0 -6,2.69141 -6,6c0,2.21875 1.23438,4.14844 3.03125,5.1875l-1.5625,4.125c-0.79297,-0.20312 -1.61328,-0.3125 -2.46875,-0.3125c-2.39453,0 -4.58984,0.83984 -6.3125,2.25l-7.8125,-7.78125c0.70313,-0.98047 1.125,-2.17187 1.125,-3.46875c0,-3.30859 -2.69141,-6 -6,-6z"></path></g></g></svg>