<svg xmlns="http://www.w3.org/2000/svg" xmlns:xlink="http://www.w3.org/1999/xlink" viewBox="0,0,256,256" width="30px" height="30px" fill-rule="nonzero"><g fill="#007707" fill-rule="nonzero" stroke="none" stroke-width="1" stroke-linecap="butt" stroke-linejoin="miter" stroke-miterlimit="10" stroke-dasharray="" stroke-dashoffset="0" font-family="none" font-weight="none" font-size="none" text-anchor="none" style="mix-blend-mode: normal"><g transform="scale(9.84615,9.84615)"><path d="M12.96875,0.3125c-0.54297,0 -1.08594,0.55469 -2.1875,1.65625l-6.5625,6.59375c-1.20703,1.21094 -0.80469,1.4375 0.46875,1.4375h3.3125v8c0,1.65625 1.34375,3 3,3h4c1.65625,0 3,-1.34375 3,-3v-8h3.25c1.41016,0 1.70703,-0.22656 0.5,-1.4375l-6.59375,-6.59375c-1.10156,-1.10156 -1.64453,-1.65625 -2.1875,-1.65625zM0,19v4c0,1.65625 1.34375,3 3,3h20c1.65625,0 3,-1.34375 3,-3v-4h-2v4c0,0.55078 -0.44922,1 -1,1h-20c-0.55078,0 -1,-0.44922 -1,-1v-4z"></path></g></g></svg>