<svg xmlns="http://www.w3.org/2000/svg" viewBox="0,0,255.98959,255.98959"
     width="30px" height="30px" fill-rule="nonzero">
    <g fill="#652cd1" fill-rule="nonzero" stroke="none" stroke-width="1" stroke-linecap="butt" stroke-linejoin="miter"
       stroke-miterlimit="10" stroke-dasharray="" stroke-dashoffset="0" font-family="none" font-weight="none"
       font-size="none" text-anchor="none" style="mix-blend-mode: normal">
        <g transform="scale(5.12,5.12)">
            <path d="M29,4.53125c-5.00781,0 -9.58594,2.90625 -11.78125,7.34375c-1.13672,-0.75 -2.48437,-1.15625 -3.875,-1.15625c-3.70312,0 -6.72266,2.89063 -6.96875,6.53125c-3.78125,1.37891 -6.375,5.02344 -6.375,9.09375c0,5.33203 4.32422,9.65625 9.65625,9.65625h14.34375v-10.59375l-3.28125,3.3125c-0.39062,0.39063 -1.04687,0.39063 -1.4375,0c-0.39062,-0.39062 -0.39062,-1.04687 0,-1.4375l5.71875,-5.6875l5.71875,5.6875c0.39063,0.39063 0.39063,1.04688 0,1.4375c-0.19531,0.19531 -0.46094,0.28125 -0.71875,0.28125c-0.25781,0 -0.52344,-0.08594 -0.71875,-0.28125l-3.28125,-3.3125v10.59375h15.09375c4.91016,0 8.90625,-4 8.90625,-8.90625c0,-4.54687 -3.42578,-8.3125 -7.875,-8.84375c0.01172,-0.19531 0.03125,-0.37891 0.03125,-0.5625c0,-7.25 -5.90625,-13.15625 -13.15625,-13.15625zM26,36h-2v7c0,0.55469 0.44922,1 1,1c0.55078,0 1,-0.44531 1,-1z"></path>
        </g>
    </g>
</svg>