<svg xmlns="http://www.w3.org/2000/svg" viewBox="0,0,255.85071,255.98959"
     width="30px" height="30px" fill-rule="nonzero">
    <g fill="#009a18" fill-rule="nonzero" stroke="none" stroke-width="1" stroke-linecap="butt" stroke-linejoin="miter"
       stroke-miterlimit="10" stroke-dasharray="" stroke-dashoffset="0" font-family="none" font-weight="none"
       font-size="none" text-anchor="none" style="mix-blend-mode: normal">
        <g transform="scale(8.52878,8.52878)">
            <path d="M6,3c-1.645,0 -3,1.355 -3,3v2c-0.008,0.552 0.43433,1.00567 0.98633,1.01367c0.552,0.008 1.00567,-0.43333 1.01367,-0.98633v-0.02734v-2c0,-0.565 0.435,-1 1,-1h2c0.552,0.008 1.00567,-0.43433 1.01367,-0.98633c0.008,-0.552 -0.43333,-1.00567 -0.98633,-1.01367h-0.02734zM22,3c-0.552,-0.008 -1.00567,0.43433 -1.01367,0.98633c-0.008,0.552 0.43333,1.00567 0.98633,1.01367h0.02734h2c0.565,0 1,0.435 1,1v2c-0.008,0.552 0.43433,1.00567 0.98633,1.01367c0.552,0.008 1.00567,-0.43333 1.01367,-0.98633v-0.02734v-2c0,-1.645 -1.355,-3 -3,-3zM15.00195,7.99609c-5.95,0 -9.79914,6.44055 -9.86914,6.56055c-0.09,0.13 -0.14062,0.27945 -0.14062,0.43945c0,0.13 0.02961,0.26086 0.09961,0.38086h0.00977c0.01,0.03 3.24039,6.61914 9.90039,6.61914c6.63,0 9.85063,-6.52937 9.89063,-6.60937c0.01,0 0.00977,-0.00977 0.00977,-0.00977c0.07,-0.12 0.10938,-0.25086 0.10938,-0.38086c0,-0.16 -0.05063,-0.30945 -0.14062,-0.43945c-0.04,-0.06 -1.01852,-1.70031 -2.72852,-3.32031c-1.71,-1.63 -4.17063,-3.24023 -7.14062,-3.24023zM15.00195,10.0957c2.58,0 4.66992,2.19039 4.66992,4.90039c0,2.7 -2.08992,4.90039 -4.66992,4.90039c-2.58,0 -4.66992,-2.20039 -4.66992,-4.90039c0,-2.71 2.08992,-4.90039 4.66992,-4.90039zM15,12.91992c-1.106,0 -2.00195,0.89595 -2.00195,2.00195c0,1.106 0.89595,2.00195 2.00195,2.00195c1.106,0 2.00195,-0.89595 2.00195,-2.00195c0,-1.106 -0.89595,-2.00195 -2.00195,-2.00195zM3.98438,20.98633c-0.552,0.009 -0.99237,0.46267 -0.98437,1.01367v2c0,1.645 1.355,3 3,3h2c0.552,0.008 1.00567,-0.43433 1.01367,-0.98633c0.008,-0.552 -0.43333,-1.00567 -0.98633,-1.01367h-0.02734h-2c-0.565,0 -1,-0.435 -1,-1v-2c0.008,-0.552 -0.43433,-1.00567 -0.98633,-1.01367zM25.98438,20.98633c-0.551,0.009 -0.99237,0.46267 -0.98437,1.01367v2c0,0.565 -0.435,1 -1,1h-2c-0.552,-0.008 -1.00567,0.43433 -1.01367,0.98633c-0.008,0.552 0.43433,1.00567 0.98633,1.01367h0.02734h2c1.645,0 3,-1.355 3,-3v-2c0.008,-0.552 -0.43433,-1.00567 -0.98633,-1.01367z"></path>
        </g>
    </g>
</svg>