<svg xmlns="http://www.w3.org/2000/svg" viewBox="0 0 48 48" width="42px" height="42px">
    <path fill="#FFC107"
          d="M26.697,14.987c-0.916-1.085-1.996-2.022-3.197-2.789C21.329,10.813,18.76,10,16,10C8.28,10,2,16.28,2,24s6.28,14,14,14c2.76,0,5.329-0.813,7.5-2.198c-1.201-0.767-2.281-1.704-3.197-2.789C18.998,33.639,17.542,34,16,34c-5.514,0-10-4.486-10-10s4.486-10,10-10c1.542,0,2.998,0.361,4.303,0.987c1.225,0.587,2.31,1.412,3.197,2.421C25.051,19.17,26,21.474,26,24s-0.949,4.83-2.5,6.592c0.888,1.009,1.973,1.834,3.197,2.421C28.754,30.575,30,27.432,30,24S28.754,17.425,26.697,14.987z"/>
    <path fill="#FFC107"
          d="M31,10c-2.76,0-5.329,0.813-7.5,2.198c1.201,0.767,2.281,1.704,3.197,2.789C28.002,14.361,29.458,14,31,14c5.514,0,10,4.486,10,10s-4.486,10-10,10c-1.542,0-2.998-0.361-4.303-0.987c-1.225-0.587-2.31-1.412-3.197-2.421C21.949,28.83,21,26.526,21,24s0.949-4.83,2.5-6.592c-0.888-1.009-1.973-1.834-3.197-2.421C18.246,17.425,17,20.568,17,24s1.246,6.575,3.303,9.013c0.916,1.085,1.996,2.022,3.197,2.789C25.671,37.187,28.24,38,31,38c7.72,0,14-6.28,14-14S38.72,10,31,10z"/>
    <path fill="#F29E25"
          d="M30,24c0,3.432-1.246,6.575-3.303,9.013c-1.225-0.587-2.31-1.412-3.197-2.421c0.062-0.069,0.115-0.146,0.175-0.217c2.457-2.197,4.013-5.382,4.013-8.938c0-3.973-1.939-7.485-4.915-9.67c0.247,0.139,0.49,0.279,0.728,0.431c1.201,0.767,2.281,1.704,3.197,2.789C28.754,17.425,30,20.568,30,24z M20.303,33.013c0.916,1.085,1.996,2.022,3.197,2.789c0.237,0.151,0.48,0.292,0.728,0.431c-2.976-2.185-4.915-5.697-4.915-9.67c0-3.556,1.556-6.74,4.013-8.938c0.06-0.071,0.113-0.147,0.175-0.217c-0.888-1.009-1.973-1.834-3.197-2.421C18.246,17.425,17,20.568,17,24S18.246,30.575,20.303,33.013z"/>
    <g>
        <path fill="#DD851D"
              d="M19.117 16.635c-.004.006-.008.012-.012.018.11.047.223.086.332.139.981.47 1.843 1.122 2.561 1.938.045.051.084.105.125.159.374-.447.768-.875 1.202-1.264.06-.071.113-.147.175-.217-.888-1.009-1.973-1.834-3.197-2.421-.223.264-.431.539-.634.818C19.477 16.076 19.293 16.354 19.117 16.635zM27.894 31.349c-.11-.047-.222-.087-.331-.14-.981-.47-1.843-1.122-2.561-1.938-.045-.052-.083-.106-.123-.16-.375.446-.77.876-1.204 1.265-.06.071-.113.147-.175.217.888 1.009 1.973 1.834 3.197 2.421.224-.265.433-.542.637-.822C27.529 31.916 27.716 31.635 27.894 31.349z"/>
    </g>
</svg>