<svg xmlns="http://www.w3.org/2000/svg" xmlns:xlink="http://www.w3.org/1999/xlink" viewBox="0,0,256,256" width="48px" height="48px" fill-rule="nonzero"><g fill="#d19e06" fill-rule="nonzero" stroke="none" stroke-width="1" stroke-linecap="butt" stroke-linejoin="miter" stroke-miterlimit="10" stroke-dasharray="" stroke-dashoffset="0" font-family="none" font-weight="none" font-size="none" text-anchor="none" style="mix-blend-mode: normal"><g transform="scale(5.12,5.12)"><path d="M21.90625,7c-9.92578,0 -18,8.07422 -18,18c0,9.92578 8.07422,18 18,18c9.92578,0 18,-8.07422 18,-18c0,-9.92578 -8.07422,-18 -18,-18zM30.75,7.09375c6.58984,3.27344 11.15625,10.0625 11.15625,17.90625c0,7.84766 -4.56641,14.63281 -11.15625,17.90625c9.05469,-0.92969 16.15625,-8.60937 16.15625,-17.90625c0,-9.29687 -7.10156,-16.97266 -16.15625,-17.90625zM21,14h2v2.3125c2.89844,0.5 3.89844,2.48828 4.5,4.6875h-2c-0.30078,-1.60156 -1.30469,-2.90625 -3.40625,-2.90625c-3,0 -3.40625,2.00781 -3.40625,2.90625c0,2.10156 1.89844,2.59375 4,3.09375c2.60156,0.60156 5.3125,1.51172 5.3125,4.8125c0,4 -3.5,5.08594 -5,5.1875v1.90625h-2v-1.90625c-1.69922,-0.30078 -4.69922,-1.29297 -5,-5.59375h2c0,1.30078 0.89844,3.6875 4,3.6875c3.10156,0 3.8125,-1.49219 3.8125,-3.09375c0,-4.80078 -9.3125,-1.50781 -9.3125,-7.90625c0,-3.39844 2.89844,-4.80078 4.5,-5z"></path></g></g></svg>