<svg xmlns="http://www.w3.org/2000/svg" xmlns:xlink="http://www.w3.org/1999/xlink" viewBox="0,0,256,256" width="50px"
     height="50px" fill-rule="nonzero">
    <g fill-opacity="0" fill="#dddddd" fill-rule="nonzero" stroke="none" stroke-width="1" stroke-linecap="butt"
       stroke-linejoin="miter" stroke-miterlimit="10" stroke-dasharray="" stroke-dashoffset="0" font-family="none"
        font-size="none"  style="mix-blend-mode: normal">
        <path d="M0,256v-256h256v256z" id="bgRectangle"></path>
    </g>
    <g fill="#22c55e" fill-rule="nonzero" stroke="#22c55e" stroke-width="17" stroke-linecap="butt"
       stroke-linejoin="round" stroke-miterlimit="10" stroke-dasharray="" stroke-dashoffset="0" font-family="none"
        font-size="none" style="mix-blend-mode: normal">
        <path transform="scale(0.53332,0.53332)"
              d="M429.1,247.514v142.754c0,19.986 -16.26,36.246 -36.246,36.246h-356.608c-19.986,0 -36.246,-16.26 -36.246,-36.246v-249.508c0,-19.986 16.26,-36.246 36.246,-36.246h242.754c4.418,0 8,3.582 8,8c0,4.418 -3.582,8 -8,8h-242.754c-11.163,0 -20.246,9.082 -20.246,20.246v249.508c0,11.164 9.083,20.246 20.246,20.246h356.608c11.164,0 20.246,-9.082 20.246,-20.246v-142.754c0,-4.418 3.582,-8 8,-8c4.418,0 8,3.582 8,8zM181.008,302.937h-108.277c-4.418,0 -8,-3.582 -8,-8c0,-4.418 3.582,-8 8,-8h108.277c4.418,0 8,3.582 8,8c0,4.418 -3.582,8 -8,8zM279.631,294.937c0,4.418 -3.582,8 -8,8h-36.485c-4.418,0 -8,-3.582 -8,-8c0,-4.418 3.582,-8 8,-8h36.485c4.418,0 8,3.582 8,8zM313.062,294.937c0,-4.418 3.582,-8 8,-8h12.946c4.418,0 8,3.582 8,8c0,4.418 -3.582,8 -8,8h-12.946c-4.419,0 -8,-3.582 -8,-8zM133.931,352.845c4.418,0 8,3.582 8,8c0,4.418 -3.582,8 -8,8h-61.2c-4.418,0 -8,-3.582 -8,-8c0,-4.418 3.582,-8 8,-8zM80.731,185.006v32.73c0,4.411 3.589,8 8,8h32.73c4.418,0 8,3.582 8,8c0,4.418 -3.582,8 -8,8h-32.73c-13.234,0 -24,-10.767 -24,-24v-32.73c0,-13.233 10.766,-24 24,-24h32.73c13.234,0 24,10.767 24,24c0,4.418 -3.582,8 -8,8c-4.418,0 -8,-3.582 -8,-8c0,-4.411 -3.589,-8 -8,-8h-32.73c-4.411,0 -8,3.589 -8,8zM394.907,202.074c7.827,-38.245 -26.384,-71.636 -64.201,-63.372c-4.315,0.945 -8.58,-1.791 -9.523,-6.107c-0.943,-4.316 1.792,-8.581 6.108,-9.523c49.119,-10.737 93.425,32.654 83.292,82.21c-0.775,3.787 -4.109,6.397 -7.83,6.398c-5.073,0 -8.859,-4.649 -7.846,-9.606zM479.206,205.29c-0.442,4.102 -3.91,7.143 -7.944,7.144c-4.775,0 -8.473,-4.134 -7.964,-8.858c8.251,-76.532 -56.246,-141.701 -133.438,-133.352c-4.392,0.484 -8.339,-2.698 -8.815,-7.092c-0.476,-4.392 2.699,-8.338 7.092,-8.814c86.971,-9.422 160.447,63.964 151.069,150.972zM337,180.514c8.822,0 16,7.178 16,16c0,8.822 -7.178,16 -16,16c-8.822,0 -16,-7.178 -16,-16c0,-8.822 7.178,-16 16,-16z"
              id="strokeMainSVG"></path>
    </g>
    <g fill="#22c55e" fill-rule="nonzero" stroke="none" stroke-width="1" stroke-linecap="butt" stroke-linejoin="miter"
       stroke-miterlimit="10" stroke-dasharray="" stroke-dashoffset="0" font-family="none"
       font-size="none"  style="mix-blend-mode: normal">
        <g transform="scale(0.53332,0.53332)">
            <path d="M429.1,247.514v142.754c0,19.986 -16.26,36.246 -36.246,36.246h-356.608c-19.986,0 -36.246,-16.26 -36.246,-36.246v-249.508c0,-19.986 16.26,-36.246 36.246,-36.246h242.754c4.418,0 8,3.582 8,8c0,4.418 -3.582,8 -8,8h-242.754c-11.163,0 -20.246,9.082 -20.246,20.246v249.508c0,11.164 9.083,20.246 20.246,20.246h356.608c11.164,0 20.246,-9.082 20.246,-20.246v-142.754c0,-4.418 3.582,-8 8,-8c4.418,0 8,3.582 8,8zM189.008,294.937c0,-4.418 -3.582,-8 -8,-8h-108.277c-4.418,0 -8,3.582 -8,8c0,4.418 3.582,8 8,8h108.277c4.418,0 8,-3.582 8,-8zM271.631,286.937h-36.485c-4.418,0 -8,3.582 -8,8c0,4.418 3.582,8 8,8h36.485c4.418,0 8,-3.582 8,-8c0,-4.418 -3.582,-8 -8,-8zM321.062,302.937h12.946c4.418,0 8,-3.582 8,-8c0,-4.418 -3.582,-8 -8,-8h-12.946c-4.418,0 -8,3.582 -8,8c0,4.418 3.581,8 8,8zM72.731,352.845c-4.418,0 -8,3.582 -8,8c0,4.418 3.582,8 8,8h61.2c4.418,0 8,-3.582 8,-8c0,-4.418 -3.582,-8 -8,-8zM88.731,177.006h32.73c4.411,0 8,3.589 8,8c0,4.418 3.582,8 8,8c4.418,0 8,-3.582 8,-8c0,-13.233 -10.766,-24 -24,-24h-32.73c-13.234,0 -24,10.767 -24,24v32.73c0,13.233 10.766,24 24,24h32.73c4.418,0 8,-3.582 8,-8c0,-4.418 -3.582,-8 -8,-8h-32.73c-4.411,0 -8,-3.589 -8,-8v-32.73c0,-4.411 3.589,-8 8,-8zM402.753,211.68c3.721,-0.001 7.055,-2.611 7.83,-6.398c10.133,-49.556 -34.173,-92.947 -83.292,-82.21c-4.316,0.942 -7.051,5.207 -6.108,9.523c0.943,4.316 5.208,7.052 9.523,6.107c37.817,-8.264 72.028,25.127 64.201,63.372c-1.013,4.957 2.773,9.606 7.846,9.606zM328.137,54.318c-4.393,0.476 -7.568,4.422 -7.092,8.814c0.476,4.394 4.423,7.576 8.815,7.092c77.192,-8.349 141.689,56.82 133.438,133.352c-0.509,4.724 3.189,8.858 7.964,8.858c4.034,-0.001 7.502,-3.042 7.944,-7.144c9.378,-87.008 -64.098,-160.394 -151.069,-150.972zM321,196.514c0,8.822 7.178,16 16,16c8.822,0 16,-7.178 16,-16c0,-8.822 -7.178,-16 -16,-16c-8.822,0 -16,7.178 -16,16z"></path>
        </g>
    </g>
</svg>