<svg xmlns="http://www.w3.org/2000/svg" viewBox="0,0,256,256" width="50px" height="50px" fill-rule="nonzero">
    <g fill="#9a9a9a" fill-rule="nonzero" stroke="none" stroke-width="1" stroke-linecap="butt" stroke-linejoin="miter"
       stroke-miterlimit="10" stroke-dasharray="" stroke-dashoffset="0" font-family="none"
       font-size="none" style="mix-blend-mode: normal">
        <g transform="scale(5.12,5.12)">
            <path d="M25,3.03906c-1.03344,0 -2.06686,0.49998 -2.63672,1.50195l-20.95703,36.85742c-1.13905,2.00386 0.33481,4.60156 2.63867,4.60156h41.91016c2.30387,0 3.77727,-2.599 2.63867,-4.60352l-20.95703,-36.85547c-0.56986,-1.00197 -1.60328,-1.50195 -2.63672,-1.50195zM25,4.96094c0.34106,0 0.6823,0.19028 0.89844,0.57031l20.95703,36.85352h-0.00195c0.43145,0.75949 -0.0603,1.61523 -0.89844,1.61523h-41.91016c-0.83813,0 -1.33134,-0.85514 -0.90039,-1.61328l20.95703,-36.85547c0.21614,-0.38003 0.55738,-0.57031 0.89844,-0.57031zM9.00195,4.98828c-0.38935,-0.00465 -0.74601,0.2171 -0.91409,0.56834c-0.16808,0.35124 -0.11701,0.7681 0.13088,1.06838l4,5c0.22326,0.27923 0.57854,0.41811 0.93197,0.36431c0.35343,-0.0538 0.65131,-0.29209 0.78137,-0.6251c0.13007,-0.33301 0.07256,-0.71011 -0.15085,-0.98921l-4,-5c-0.18716,-0.24106 -0.47413,-0.38347 -0.7793,-0.38672zM40.96875,4.99023c-0.29448,0.01149 -0.5689,0.15227 -0.75,0.38477l-4,5c-0.22341,0.2791 -0.28091,0.65621 -0.15085,0.98921c0.13007,0.33301 0.42794,0.5713 0.78137,0.6251c0.35343,0.0538 0.70872,-0.08508 0.93197,-0.36431l4,-5c0.25049,-0.30441 0.29879,-0.72757 0.12333,-1.08059c-0.17546,-0.35302 -0.54193,-0.57004 -0.93583,-0.55417zM2.96484,11.99414c-0.46199,0.01057 -0.85658,0.33628 -0.95451,0.78789c-0.09793,0.45161 0.12629,0.91151 0.5424,1.1125l6,3c0.49404,0.24702 1.09478,0.04677 1.3418,-0.44727c0.24702,-0.49404 0.04677,-1.09478 -0.44727,-1.3418l-6,-3c-0.14893,-0.07696 -0.31483,-0.11524 -0.48242,-0.11133zM47.00391,11.99414c-0.15705,0.00117 -0.31161,0.03931 -0.45117,0.11133l-6,3c-0.31965,0.15976 -0.52977,0.47792 -0.5512,0.83463c-0.02143,0.3567 0.14909,0.69774 0.44731,0.89462c0.29822,0.19688 0.67883,0.21968 0.99842,0.05981l6,-3c0.42109,-0.20367 0.64476,-0.67201 0.53849,-1.12754c-0.10627,-0.45553 -0.5141,-0.77654 -0.98185,-0.77285zM23.99805,17c-0.552,0 -0.99805,0.448 -0.99805,1v14c0,0.552 0.44309,1 0.99609,1h2.00391c0.552,0 0.99805,-0.448 0.99805,-1l0.00195,-14c0,-0.552 -0.44505,-1 -0.99805,-1zM1,21c-0.36064,-0.0051 -0.69608,0.18438 -0.87789,0.49587c-0.18181,0.3115 -0.18181,0.69676 0,1.00825c0.18181,0.3115 0.51725,0.50097 0.87789,0.49587h6c0.36064,0.0051 0.69608,-0.18438 0.87789,-0.49587c0.18181,-0.3115 0.18181,-0.69676 0,-1.00825c-0.18181,-0.3115 -0.51725,-0.50097 -0.87789,-0.49587zM43,21c-0.36064,-0.0051 -0.69608,0.18438 -0.87789,0.49587c-0.18181,0.3115 -0.18181,0.69676 0,1.00825c0.18181,0.3115 0.51725,0.50097 0.87789,0.49587h6c0.36064,0.0051 0.69608,-0.18438 0.87789,-0.49587c0.18181,-0.3115 0.18181,-0.69676 0,-1.00825c-0.18181,-0.3115 -0.51725,-0.50097 -0.87789,-0.49587zM23.99805,36c-0.552,0 -0.99805,0.448 -0.99805,1v2c0,0.552 0.44505,1 0.99805,1h2.00391c0.552,0 0.99805,-0.448 0.99805,-1v-2c0,-0.552 -0.44505,-1 -0.99805,-1z"></path>
        </g>
    </g>
    <g fill="#a855f7" fill-rule="nonzero" stroke="none" stroke-width="1" stroke-linecap="butt" stroke-linejoin="miter"
       stroke-miterlimit="10" stroke-dasharray="" stroke-dashoffset="0" font-family="none"
       font-size="none" style="mix-blend-mode: normal">
        <g transform="scale(14.22222,14.22222)" id="overlay">
            <g id="Слой_2"
               font-family="Inter, apple-system, BlinkMacSystemFont, &quot;Helvetica Neue&quot;, &quot;Segoe UI&quot;, &quot;Fira Sans&quot;, Roboto, Oxygen, Ubuntu, &quot;Droid Sans&quot;, Arial, sans-serif"
               font-weight="400" font-size="16" text-anchor="start" visibility="hidden"></g>
            <g id="Android_x5F_4"
               font-family="Inter, apple-system, BlinkMacSystemFont, &quot;Helvetica Neue&quot;, &quot;Segoe UI&quot;, &quot;Fira Sans&quot;, Roboto, Oxygen, Ubuntu, &quot;Droid Sans&quot;, Arial, sans-serif"
               font-weight="400" font-size="16" text-anchor="start" visibility="hidden"></g>
            <g id="Android_x5F_5"
               font-family="Inter, apple-system, BlinkMacSystemFont, &quot;Helvetica Neue&quot;, &quot;Segoe UI&quot;, &quot;Fira Sans&quot;, Roboto, Oxygen, Ubuntu, &quot;Droid Sans&quot;, Arial, sans-serif"
               font-weight="400" font-size="16" text-anchor="start" visibility="hidden"></g>
            <g id="Windows_x5F_8"
               font-family="Inter, apple-system, BlinkMacSystemFont, &quot;Helvetica Neue&quot;, &quot;Segoe UI&quot;, &quot;Fira Sans&quot;, Roboto, Oxygen, Ubuntu, &quot;Droid Sans&quot;, Arial, sans-serif"
               font-weight="400" font-size="16" text-anchor="start" visibility="hidden"></g>
            <g id="Windows_x5F_10"
               font-family="Inter, apple-system, BlinkMacSystemFont, &quot;Helvetica Neue&quot;, &quot;Segoe UI&quot;, &quot;Fira Sans&quot;, Roboto, Oxygen, Ubuntu, &quot;Droid Sans&quot;, Arial, sans-serif"
               font-weight="400" font-size="16" text-anchor="start" visibility="hidden"></g>
            <g id="Color"
               font-family="Inter, apple-system, BlinkMacSystemFont, &quot;Helvetica Neue&quot;, &quot;Segoe UI&quot;, &quot;Fira Sans&quot;, Roboto, Oxygen, Ubuntu, &quot;Droid Sans&quot;, Arial, sans-serif"
               font-weight="400" font-size="16" text-anchor="start" visibility="hidden"></g>
            <g id="IOS"
               font-family="Inter, apple-system, BlinkMacSystemFont, &quot;Helvetica Neue&quot;, &quot;Segoe UI&quot;, &quot;Fira Sans&quot;, Roboto, Oxygen, Ubuntu, &quot;Droid Sans&quot;, Arial, sans-serif"
               font-weight="400" font-size="16" text-anchor="start" visibility="hidden"></g>
            <g id="IOS_copy">
                <path d="M10.4,9l7.3,-7.3c0.4,-0.4 0.4,-1 0,-1.4c-0.4,-0.4 -1,-0.4 -1.4,0l-7.3,7.3l-7.3,-7.3c-0.4,-0.4 -1,-0.4 -1.4,0c-0.4,0.4 -0.4,1 0,1.4l7.3,7.3l-7.3,7.3c-0.4,0.4 -0.4,1 0,1.4c0.2,0.2 0.4,0.3 0.7,0.3c0.3,0 0.5,-0.1 0.7,-0.3l7.3,-7.3l7.3,7.3c0.2,0.2 0.5,0.3 0.7,0.3c0.2,0 0.5,-0.1 0.7,-0.3c0.4,-0.4 0.4,-1 0,-1.4z"></path>
            </g>
        </g>
    </g>
</svg>