<svg xmlns="http://www.w3.org/2000/svg" viewBox="0,0,256,256" width="50px" height="50px" fill-rule="nonzero">
    <g fill="#ffab45" fill-rule="nonzero" stroke="none" stroke-width="1" stroke-linecap="butt" stroke-linejoin="miter"
       stroke-miterlimit="10" stroke-dasharray="" stroke-dashoffset="0" font-family="none" font-weight="none"
       font-size="none" style="mix-blend-mode: normal">
        <g transform="scale(8.53333,8.53333)">
            <path d="M6,3c-1.105,0 -2,0.895 -2,2v11l3,-3h11c1.105,0 2,-0.895 2,-2v-6c0,-1.105 -0.895,-2 -2,-2zM11,5v2h4c0.552,0 1,0.448 1,1c0,0.552 -0.448,1 -1,1h-4v2l-3,-3zM12,15c-1.105,0 -2,0.895 -2,2v6c0,1.105 0.895,2 2,2h11l3,3v-11c0,-1.105 -0.895,-2 -2,-2zM19,17l3,3l-3,3v-2h-4c-0.552,0 -1,-0.448 -1,-1c0,-0.552 0.448,-1 1,-1h4z"></path>
        </g>
    </g>
</svg>