<svg xmlns="http://www.w3.org/2000/svg" viewBox="0,0,256,256" width="50px" height="50px" fill-rule="nonzero">
    <g fill="#ffffff" fill-rule="nonzero" stroke="none" stroke-width="1" stroke-linecap="butt" stroke-linejoin="miter"
       stroke-miterlimit="10" stroke-dasharray="" stroke-dashoffset="0" font-family="none"
       font-size="none" style="mix-blend-mode: normal">
        <g transform="scale(5.12,5.12)">
            <path d="M25,2c-12.6907,0 -23,10.3093 -23,23c0,12.69071 10.3093,23 23,23c12.69071,0 23,-10.30929 23,-23c0,-12.6907 -10.30929,-23 -23,-23zM25,4c11.60982,0 21,9.39018 21,21c0,11.60982 -9.39018,21 -21,21c-11.60982,0 -21,-9.39018 -21,-21c0,-11.60982 9.39018,-21 21,-21zM25,11c-3.32381,0 -6,2.67619 -6,6v3h-1c-1.64545,0 -3,1.35455 -3,3v10c0,1.64545 1.35455,3 3,3h14c1.64545,0 3,-1.35455 3,-3v-10c0,-1.64545 -1.35455,-3 -3,-3h-11v-3c0,-2.27619 1.72381,-4 4,-4c1.99736,0 3.55595,1.34056 3.91992,3.19336c0.10679,0.54204 0.63277,0.89488 1.1748,0.78809c0.54204,-0.10679 0.89488,-0.63277 0.78809,-1.1748c-0.54203,-2.7592 -2.96617,-4.80664 -5.88281,-4.80664zM18,22h1.83203c0.10799,0.01785 0.21818,0.01785 0.32617,0h11.8418c0.55454,0 1,0.44545 1,1v10c0,0.55454 -0.44546,1 -1,1h-14c-0.55455,0 -1,-0.44546 -1,-1v-10c0,-0.55455 0.44545,-1 1,-1zM25,25c-1.10457,0 -2,0.89543 -2,2c0.00056,0.71397 0.38169,1.37349 1,1.73047v1.26953c0,0.6 0.4,1 1,1c0.6,0 1,-0.4 1,-1v-1.27148c0.61771,-0.35663 0.99874,-1.01525 1,-1.72852c0,-1.10457 -0.89543,-2 -2,-2z"></path>
        </g>
    </g>
</svg>